<svg width="195" height="181" viewBox="0 0 195 181" fill="none" xmlns="http://www.w3.org/2000/svg">
<path d="M81.1472 105.737C81.4558 105.813 74.5751 103.012 73.5111 100.077C70.8725 92.7965 71.4011 90.4949 76.1224 84.4651C88.2915 68.9236 96.4657 72.4804 100.183 54.7096C100.219 54.5375 100.962 56.7351 100.644 57.6862C99.2188 61.9448 96.6407 64.0595 93.6481 66.8401C81.1472 78.4556 78.3757 78.6337 74.6224 84.4651C70.8692 90.2965 72.348 103.57 81.1472 105.737ZM100.187 54.7243C100.194 54.2939 101.396 56.6144 101.367 57.659C101.276 61.0028 100.585 62.4647 102.72 68.9236C104.856 75.3825 110.538 93.9235 104.036 100.036C93.6226 109.826 110.123 100.077 108.623 87.4981C107.321 76.5751 99.991 65.5924 100.187 54.7243Z" fill="black"/>
<path d="M91.2205 113.769C91.1293 114.159 95.2031 105.787 100.446 105.216C113.449 103.799 117.775 105.169 129.639 113.212C160.216 133.943 154.954 143.823 188.302 153.92C188.625 154.017 184.279 153.897 182.475 153.197C174.399 150.065 170.505 146.49 164.905 141.693C141.513 121.655 140.745 117.905 129.401 111.211C118.057 104.517 93.8221 102.654 91.2205 113.769ZM188.276 153.92C189.07 154.055 183.465 153.466 181.535 153.126C175.356 152.037 174.07 152.214 162.501 153.197C150.933 154.18 117.654 156.404 105.355 145.96C85.6593 129.235 106.245 154.071 129.195 155.705C149.125 157.125 168.21 150.518 188.276 153.92Z" fill="black"/>
<path d="M93.2477 120.863C93.2007 121.064 95.2984 116.753 97.9981 116.458C104.693 115.729 106.921 116.435 113.03 120.576C128.775 131.251 126.065 136.338 143.237 141.537C143.403 141.587 141.378 141.771 140.449 141.41C136.29 139.798 134.073 137.711 131.189 135.241C119.144 124.923 118.749 122.992 112.908 119.545C107.066 116.099 94.5873 115.139 93.2477 120.863ZM143.223 141.537C143.632 141.607 141.528 142.087 140.534 141.912C137.352 141.351 135.908 140.659 129.951 141.165C123.995 141.671 106.859 142.816 100.526 137.438C90.3842 128.826 100.984 141.615 112.801 142.456C123.064 143.187 132.891 139.785 143.223 141.537Z" fill="black"/>
<path d="M76.0663 113.311C76.6889 113.461 67.5324 112.676 61.75 103C53.723 89.5678 54.0787 83.4114 60.7756 70.4635C78.1138 36.941 99.4539 43.0935 102.974 6.56562C103.008 6.21173 104.007 10.0488 103.579 12.0304C101.662 20.9026 97.9347 26.1367 92.5402 32.3879C70.0058 58.5007 64.4773 59.4744 58.2323 72.0236C51.9873 84.5729 60.7755 109.625 76.0663 113.311ZM102.985 6.59421C102.905 5.72787 103.404 9.92539 103.579 12.0304C104.137 18.7684 105.504 22.0565 111.23 34.5583C116.955 47.06 135.454 72.5186 120.784 96.7724C105.884 121.407 130 95.7534 127.214 70.5639C124.765 48.4117 105.006 28.4722 102.985 6.59421Z" fill="black"/>
<path d="M48.8757 102.224C48.963 101.471 47.963 113.027 48.1077 118.435C48.4097 129.726 52.0791 140.228 61.0361 147.348C76.9011 159.959 99.067 159.181 117.076 153.657C117.887 153.409 115.174 154.618 114.515 154.783C109.879 155.945 105.094 156.374 100.358 157.025C88.3939 158.671 75.6987 156.832 65.0139 150.584C46.8833 139.981 46.6934 121.043 48.8757 102.224ZM117.219 153.657C117.913 153.811 114.538 153.576 113.73 153.362C107.951 151.826 102.587 148.335 99.3996 143.38C93.786 134.653 89.3497 126.054 82.263 121.385C71.071 114.01 59.7347 112.713 49.0163 102.645C47.6654 101.376 52.2243 104.297 52.7327 104.705C57.39 108.449 62.1481 112.26 67.8076 114.242C73.0891 116.091 79.4953 117.349 83.8823 121.097C95.7706 131.253 98.2178 149.437 117.219 153.657Z" fill="black"/>
<path d="M3.79264 19.343C24.0037 36.3563 19.1471 63.3913 33.1455 83.9529C33.3421 84.2417 31.2801 80.6037 30.3936 78.9049C28.5996 75.4672 27.1106 71.8752 25.9693 68.1563C20.0057 48.7242 21.3574 32.9947 3.79264 19.343Z" fill="black"/>
<path d="M15.0063 13.7738C32.5917 33.4892 23.9386 59.5584 34.8696 81.9022C35.0232 82.216 33.4997 78.3217 32.8638 76.514C31.5772 72.8561 30.6143 69.0888 30.0136 65.2454C26.8749 45.1626 30.4505 29.7853 15.0063 13.7738Z" fill="black"/>
<path d="M126.439 163.75C109.657 163.902 100.821 148.855 85.5676 144.727C85.3533 144.669 87.852 145.57 88.982 146.023C91.2686 146.939 93.472 148.056 95.5601 149.378C106.471 156.284 112.323 164.429 126.439 163.75Z" fill="black"/>
<path d="M121.437 173.27C104.798 171.077 98.1488 154.945 83.6214 148.728C83.4173 148.64 85.7656 149.882 86.8214 150.488C88.9577 151.715 90.9836 153.128 92.8668 154.728C102.707 163.089 107.365 171.971 121.437 173.27Z" fill="black"/>
<path d="M50.5066 89.5574C50.2147 89.0829 52.8 92.4387 49.7648 101.377C49.6106 101.831 49.1034 102.083 48.8818 102.508C51.1819 97.9728 52.8387 93.3484 50.5066 89.5574ZM45.605 104.64C21.957 119.41 29.8039 58.0892 50.2715 88.2365C51.0119 89.3271 48.7555 85.1877 48.7555 85.1877C44.7271 78.5408 35.4411 75.7733 32.3246 84.5326C26.6726 100.418 36.5695 110.258 45.605 104.64Z" fill="black"/>
</svg>
