<svg width="207" height="148" viewBox="0 0 207 148" fill="none" xmlns="http://www.w3.org/2000/svg">
<g id="Trio de margaridas">
<g id="margarida1">
<g id="p&#195;&#169;talas">
<path id="Ellipse 86" d="M35.0047 86.6918C35.0047 86.6918 38.5272 103.364 40.492 103.139C42.4568 102.914 43.0205 92.588 42.12 85.8772C41.2951 79.7303 36.8024 70.9128 36.8024 70.9128C31.5816 56.7931 35.0047 86.6918 35.0047 86.6918Z" fill="#C4C4C4"/>
<path id="Ellipse 87" d="M50.3122 86.7411C50.3122 86.7411 46.549 103.36 44.5876 103.107C42.6262 102.853 42.212 92.5207 43.2095 85.8236C44.1232 79.6893 48.7429 70.9377 48.7429 70.9377C54.1674 56.8951 50.3122 86.7411 50.3122 86.7411Z" fill="#C4C4C4"/>
</g>
<g id="p&#195;&#169;talas_2">
<path id="Ellipse 86_2" d="M21.6456 114.97C21.6456 114.97 38.853 111.311 38.6038 109.348C38.3546 107.386 27.6739 106.906 20.7432 107.862C14.3948 108.737 5.31609 113.301 5.31609 113.301C-9.23832 118.637 21.6456 114.97 21.6456 114.97Z" fill="#C4C4C4"/>
<path id="Ellipse 87_2" d="M21.4843 99.7424C21.4843 99.7424 38.7827 102.975 38.5854 104.943C38.3881 106.912 27.7236 107.655 20.7698 106.871C14.4004 106.153 5.2042 101.814 5.2042 101.814C-9.48633 96.8387 21.4843 99.7424 21.4843 99.7424Z" fill="#C4C4C4"/>
<path id="Ellipse 88" d="M23.4537 94.6026C23.4537 94.6026 37.6837 104.956 38.979 103.461C40.2742 101.965 33.4899 93.7036 28.1443 89.1876C23.2479 85.0511 13.7783 81.3467 13.7783 81.3467C0.0728723 74.0856 23.4537 94.6026 23.4537 94.6026Z" fill="#C4C4C4"/>
<path id="Ellipse 89" d="M57.3049 88.9125C57.3049 88.9125 45.1148 101.604 46.4204 103.091C47.7259 104.577 56.8325 98.9777 62.0327 94.295C66.7958 90.0058 71.752 81.127 71.752 81.127C80.8073 68.5348 57.3049 88.9125 57.3049 88.9125Z" fill="#C4C4C4"/>
<path id="Ellipse 90" d="M22.8837 121.838C22.8837 121.838 10.6936 134.53 11.9991 136.016C13.3047 137.503 22.4113 131.903 27.6115 127.221C32.3746 122.932 37.3308 114.053 37.3308 114.053C46.3861 101.461 22.8837 121.838 22.8837 121.838Z" fill="#C4C4C4"/>
<path id="Ellipse 91" d="M59.0395 127.075C59.0395 127.075 72.0408 138.935 73.4931 137.591C74.9454 136.248 69.1136 127.288 64.2987 122.211C59.8883 117.559 50.885 112.833 50.885 112.833C38.064 104.105 59.0395 127.075 59.0395 127.075Z" fill="#C4C4C4"/>
<g id="p&#195;&#169;talas_3">
<path id="Ellipse 86_3" d="M63.7883 115.288C63.7883 115.288 47.0873 111.897 47.2956 109.931C47.5039 107.964 57.8245 107.319 64.5427 108.166C70.6964 108.943 79.5516 113.366 79.5516 113.366C93.715 118.474 63.7883 115.288 63.7883 115.288Z" fill="#C4C4C4"/>
<path id="Ellipse 87_3" d="M63.6856 99.421C63.6856 99.421 47.0112 102.922 47.2347 104.887C47.4583 106.852 57.7836 107.429 64.495 106.537C70.6425 105.72 79.4634 101.239 79.4634 101.239C93.5869 96.036 63.6856 99.421 63.6856 99.421Z" fill="#C4C4C4"/>
</g>
<g id="p&#195;&#169;talas_4">
<path id="Ellipse 86_4" d="M35.0046 126.915C35.0046 126.915 38.5271 110.243 40.4919 110.468C42.4567 110.693 43.0204 121.019 42.1199 127.729C41.295 133.876 36.8023 142.694 36.8023 142.694C31.5815 156.813 35.0046 126.915 35.0046 126.915Z" fill="#C4C4C4"/>
<path id="Ellipse 87_4" d="M50.8718 126.946C50.8718 126.946 47.5026 110.243 45.5358 110.45C43.569 110.657 42.9105 120.977 43.7494 127.696C44.5178 133.85 48.9293 142.708 48.9293 142.708C54.0203 156.875 50.8718 126.946 50.8718 126.946Z" fill="#C4C4C4"/>
</g>
</g>
<g id="Miolo">
<circle id="Ellipse 57" cx="46.1609" cy="108.515" r="1.43734" transform="rotate(22.8518 46.1609 108.515)" fill="black"/>
<circle id="Ellipse 58" cx="39.9796" cy="107.369" r="1.43734" transform="rotate(22.8518 39.9796 107.369)" fill="black"/>
<circle id="Ellipse 59" cx="42.4317" cy="109.962" r="1.43734" transform="rotate(22.8518 42.4317 109.962)" fill="black"/>
<circle id="Ellipse 60" cx="45.4622" cy="104.534" r="1.43734" transform="rotate(22.8518 45.4622 104.534)" fill="black"/>
<circle id="Ellipse 61" cx="43.3535" cy="106.765" r="1.43734" transform="rotate(22.8518 43.3535 106.765)" fill="black"/>
<circle id="Ellipse 56" cx="41.7044" cy="104.285" r="1.43734" transform="rotate(22.8518 41.7044 104.285)" fill="black"/>
</g>
</g>
<g id="margarida1_2">
<g id="p&#195;&#169;talas_5">
<path id="Ellipse 86_5" d="M44.9408 15.4234C44.9408 15.4234 47.5011 27.5417 48.9293 27.3782C50.3575 27.2147 50.7673 19.7092 50.1127 14.8313C49.5131 10.3632 46.2475 3.95391 46.2475 3.95391C42.4526 -6.30936 44.9408 15.4234 44.9408 15.4234Z" fill="#E5E5E5"/>
<path id="Ellipse 87_5" d="M56.0674 15.4592C56.0674 15.4592 53.332 27.5393 51.9064 27.3551C50.4807 27.1709 50.1795 19.6603 50.9046 14.7923C51.5688 10.3334 54.9268 3.97203 54.9268 3.97203C58.8698 -6.23528 56.0674 15.4592 56.0674 15.4592Z" fill="#E5E5E5"/>
</g>
<g id="p&#195;&#169;talas_6">
<path id="Ellipse 86_6" d="M35.2302 35.9782C35.2302 35.9782 47.738 33.3188 47.5569 31.892C47.3757 30.4652 39.6121 30.1168 34.5743 30.8113C29.9598 31.4474 23.3607 34.7653 23.3607 34.7653C12.7814 38.644 35.2302 35.9782 35.2302 35.9782Z" fill="#E5E5E5"/>
<path id="Ellipse 87_6" d="M35.113 24.9096C35.113 24.9096 47.6869 27.2592 47.5435 28.69C47.4001 30.1209 39.6482 30.6608 34.5937 30.091C29.9639 29.569 23.2793 26.4151 23.2793 26.4151C12.6011 22.7989 35.113 24.9096 35.113 24.9096Z" fill="#E5E5E5"/>
<path id="Ellipse 88_2" d="M36.5446 21.1736C36.5446 21.1736 46.8881 28.6992 47.8296 27.6123C48.7711 26.5254 43.8396 20.5201 39.954 17.2375C36.395 14.2308 29.5117 11.5381 29.5117 11.5381C19.5495 6.26016 36.5446 21.1736 36.5446 21.1736Z" fill="#E5E5E5"/>
<path id="Ellipse 89_2" d="M61.1503 17.0376C61.1503 17.0376 52.2896 26.2631 53.2385 27.3435C54.1875 28.4239 60.8069 24.3538 64.5868 20.95C68.0491 17.8323 71.6516 11.3785 71.6516 11.3785C78.2337 2.22544 61.1503 17.0376 61.1503 17.0376Z" fill="#E5E5E5"/>
<path id="Ellipse 90_2" d="M36.1302 40.9706C36.1302 40.9706 27.2695 50.1961 28.2185 51.2765C29.1674 52.3569 35.7869 48.2868 39.5667 44.883C43.029 41.7653 46.6316 35.3115 46.6316 35.3115C53.2137 26.1585 36.1302 40.9706 36.1302 40.9706Z" fill="#E5E5E5"/>
<path id="Ellipse 91_2" d="M62.4112 44.7772C62.4112 44.7772 71.8616 53.3977 72.9172 52.4213C73.9728 51.4448 69.7338 44.9323 66.2339 41.2412C63.0282 37.8603 56.4838 34.4249 56.4838 34.4249C47.1645 28.0805 62.4112 44.7772 62.4112 44.7772Z" fill="#E5E5E5"/>
<g id="p&#195;&#169;talas_7">
<path id="Ellipse 86_7" d="M65.8629 36.2093C65.8629 36.2093 53.7233 33.7449 53.8748 32.3154C54.0262 30.886 61.528 30.4169 66.4113 31.0329C70.8843 31.5971 77.321 34.812 77.321 34.812C87.616 38.5256 65.8629 36.2093 65.8629 36.2093Z" fill="#E5E5E5"/>
<path id="Ellipse 87_7" d="M65.7883 24.676C65.7883 24.676 53.668 27.221 53.8305 28.6493C53.993 30.0777 61.4982 30.497 66.3767 29.8487C70.8452 29.2548 77.2569 25.9973 77.2569 25.9973C87.5229 22.2155 65.7883 24.676 65.7883 24.676Z" fill="#E5E5E5"/>
</g>
<g id="p&#195;&#169;talas_8">
<path id="Ellipse 86_8" d="M44.9407 44.6607C44.9407 44.6607 47.5011 32.5423 48.9293 32.7058C50.3574 32.8693 50.7672 40.3749 50.1126 45.2528C49.513 49.7208 46.2474 56.1302 46.2474 56.1302C42.4525 66.3934 44.9407 44.6607 44.9407 44.6607Z" fill="#E5E5E5"/>
<path id="Ellipse 87_8" d="M56.4742 44.6835C56.4742 44.6835 54.0252 32.5422 52.5956 32.6926C51.166 32.843 50.6873 40.3444 51.2971 45.2282C51.8556 49.7015 55.0623 56.1405 55.0623 56.1405C58.7628 66.4382 56.4742 44.6835 56.4742 44.6835Z" fill="#E5E5E5"/>
</g>
</g>
<g id="Miolo_2">
<circle id="Ellipse 57_2" cx="53.05" cy="31.2864" r="1.04478" transform="rotate(22.8518 53.05 31.2864)" fill="black"/>
<circle id="Ellipse 58_2" cx="48.5569" cy="30.4531" r="1.04478" transform="rotate(22.8518 48.5569 30.4531)" fill="black"/>
<circle id="Ellipse 59_2" cx="50.3393" cy="32.338" r="1.04478" transform="rotate(22.8518 50.3393 32.338)" fill="black"/>
<circle id="Ellipse 60_2" cx="52.5421" cy="28.3927" r="1.04478" transform="rotate(22.8518 52.5421 28.3927)" fill="black"/>
<circle id="Ellipse 61_2" cx="51.0093" cy="30.0143" r="1.04478" transform="rotate(22.8518 51.0093 30.0143)" fill="black"/>
<circle id="Ellipse 56_2" cx="49.8106" cy="28.2118" r="1.04478" transform="rotate(22.8518 49.8106 28.2118)" fill="black"/>
</g>
</g>
<g id="margarida1_3">
<g id="p&#195;&#169;talas_9">
<path id="Ellipse 86_9" d="M132.269 36.0578C132.269 36.0578 137.554 61.0698 140.502 60.7323C143.449 60.3948 144.295 44.9035 142.944 34.8356C141.707 25.6137 134.966 12.385 134.966 12.385C127.134 -8.79815 132.269 36.0578 132.269 36.0578Z" fill="#9E9C9C"/>
<path id="Ellipse 87_9" d="M155.235 36.1317C155.235 36.1317 149.589 61.0646 146.646 60.6845C143.704 60.3044 143.082 44.8026 144.579 34.7553C145.949 25.5522 152.88 12.4224 152.88 12.4224C161.018 -8.64524 155.235 36.1317 155.235 36.1317Z" fill="#9E9C9C"/>
</g>
<g id="p&#195;&#169;talas_10">
<path id="Ellipse 86_10" d="M112.227 78.4824C112.227 78.4824 138.043 72.9936 137.669 70.0487C137.295 67.1038 121.271 66.3847 110.873 67.8181C101.349 69.131 87.7286 75.9791 87.7286 75.9791C65.8931 83.9846 112.227 78.4824 112.227 78.4824Z" fill="#9E9C9C"/>
<path id="Ellipse 87_10" d="M111.985 55.637C111.985 55.637 137.937 60.4867 137.641 63.4398C137.345 66.393 121.346 67.5075 110.913 66.3313C101.357 65.254 87.5607 58.7445 87.5607 58.7445C65.521 51.2807 111.985 55.637 111.985 55.637Z" fill="#9E9C9C"/>
<path id="Ellipse 88_3" d="M114.94 47.926C114.94 47.926 136.289 63.4588 138.232 61.2154C140.175 58.9721 129.997 46.5772 121.977 39.8021C114.631 33.5963 100.424 28.0387 100.424 28.0387C79.8624 17.1451 114.94 47.926 114.94 47.926Z" fill="#9E9C9C"/>
<path id="Ellipse 89_3" d="M165.726 39.3894C165.726 39.3894 147.437 58.4306 149.396 60.6605C151.354 62.8905 165.017 54.4898 172.818 47.4646C179.964 41.0296 187.4 27.7091 187.4 27.7091C200.985 8.81748 165.726 39.3894 165.726 39.3894Z" fill="#9E9C9C"/>
<path id="Ellipse 90_3" d="M114.085 88.7865C114.085 88.7865 95.7963 107.828 97.7549 110.058C99.7136 112.288 113.376 103.887 121.178 96.8618C128.324 90.4268 135.759 77.1063 135.759 77.1063C149.344 58.2147 114.085 88.7865 114.085 88.7865Z" fill="#9E9C9C"/>
<path id="Ellipse 91_3" d="M168.328 96.6434C168.328 96.6434 187.833 114.436 190.012 112.421C192.191 110.405 183.442 96.9634 176.218 89.3451C169.601 82.367 156.094 75.2765 156.094 75.2765C136.859 62.1816 168.328 96.6434 168.328 96.6434Z" fill="#9E9C9C"/>
<g id="p&#195;&#169;talas_11">
<path id="Ellipse 86_11" d="M175.452 78.9594C175.452 78.9594 150.396 73.8728 150.709 70.9225C151.021 67.9722 166.505 67.004 176.584 68.2754C185.816 69.44 199.101 76.0753 199.101 76.0753C220.35 83.7401 175.452 78.9594 175.452 78.9594Z" fill="#9E9C9C"/>
<path id="Ellipse 87_11" d="M175.298 55.1549C175.298 55.1549 150.282 60.4076 150.618 63.3558C150.953 66.304 166.444 67.1694 176.513 65.8312C185.735 64.6054 198.969 57.8821 198.969 57.8821C220.158 50.0765 175.298 55.1549 175.298 55.1549Z" fill="#9E9C9C"/>
</g>
<g id="p&#195;&#169;talas_12">
<path id="Ellipse 86_12" d="M132.269 96.4028C132.269 96.4028 137.554 71.3908 140.502 71.7283C143.449 72.0658 144.295 87.557 142.944 97.6249C141.706 106.847 134.966 120.076 134.966 120.076C127.134 141.259 132.269 96.4028 132.269 96.4028Z" fill="#9E9C9C"/>
<path id="Ellipse 87_12" d="M156.074 96.45C156.074 96.45 151.019 71.3906 148.069 71.701C145.118 72.0114 144.13 87.4942 145.389 97.5741C146.542 106.807 153.16 120.097 153.16 120.097C160.798 141.351 156.074 96.45 156.074 96.45Z" fill="#9E9C9C"/>
</g>
</g>
<g id="Miolo_3">
<circle id="Ellipse 57_3" cx="149.007" cy="68.7986" r="2.15639" transform="rotate(22.8518 149.007 68.7986)" fill="black"/>
<circle id="Ellipse 58_3" cx="139.733" cy="67.0787" r="2.15639" transform="rotate(22.8518 139.733 67.0787)" fill="black"/>
<circle id="Ellipse 59_3" cx="143.412" cy="70.969" r="2.15639" transform="rotate(22.8518 143.412 70.969)" fill="black"/>
<circle id="Ellipse 60_3" cx="147.958" cy="62.8261" r="2.15639" transform="rotate(22.8518 147.958 62.8261)" fill="black"/>
<circle id="Ellipse 61_3" cx="144.795" cy="66.1729" r="2.15639" transform="rotate(22.8518 144.795 66.1729)" fill="black"/>
<circle id="Ellipse 56_3" cx="142.321" cy="62.4528" r="2.15639" transform="rotate(22.8518 142.321 62.4528)" fill="black"/>
</g>
</g>
</g>
</svg>
