<svg width="187" height="244" viewBox="0 0 187 244" fill="none" xmlns="http://www.w3.org/2000/svg">
<path d="M163.749 24.7517C165.546 24.7204 160.989 25.8458 160.313 25.878C154.958 26.1326 149.61 26.6618 144.326 27.5781C130.743 29.9334 116.956 35.0017 107.307 45.2362C90.299 63.2761 92.6069 90.5111 101.32 111.837C101.789 112.984 100.18 113.892 99.475 112.851C96.2176 108.046 95.0398 100.095 94.0427 94.4979C91.6186 80.8915 92.4503 66.0999 99.3005 53.8271C111.892 31.2679 139.874 25.1684 163.749 24.7517ZM99.4573 112.824C97.4601 109.317 109.203 124.016 112.731 134.917C118.317 152.176 117.28 171.291 103.932 184.794C77.9619 211.066 35.6787 210.038 0.836746 209.334C0.511593 209.328 7.68214 208.204 11.137 208.179C18.4236 208.126 25.6964 207.549 32.9482 206.862C55.6817 204.709 82.5291 200.682 100.142 184.647C122.599 164.201 112.183 135.171 99.4573 112.824Z" fill="black"/>
<path d="M93.7478 93.0325C92.106 84.8111 83.0398 58.6587 68.6916 68.4075C64.682 71.1318 63.295 72.9696 61.0083 75.7407C57.6168 79.8508 64.9209 69.2455 70.1237 66.672C87.3224 58.1647 96.5934 107.282 93.7478 93.0325Z" fill="black"/>
<path d="M112.364 164.346C110.722 156.125 101.656 129.973 87.3081 139.721C83.2984 142.446 81.9114 144.283 79.6248 147.055C76.2333 151.165 83.5374 140.559 88.7401 137.986C105.939 129.479 115.21 178.595 112.364 164.346Z" fill="black"/>
<path d="M114.704 162.256C116.346 154.035 125.412 127.882 139.761 137.631C143.77 140.355 145.157 142.193 147.444 144.964C150.835 149.074 143.531 138.469 138.329 135.895C121.13 127.388 111.859 176.505 114.704 162.256Z" fill="black"/>
<path d="M41.78 207.616C49.007 203.366 70.7344 186.218 56.816 175.865C52.9265 172.972 50.7353 172.265 47.367 171.014C42.3714 169.16 54.7867 172.578 58.9254 176.648C72.6067 190.101 29.2546 214.981 41.78 207.616Z" fill="black"/>
<path d="M93.4604 86.7726C94.6558 78.4745 94.8349 50.7958 78.0562 55.1986C73.3674 56.429 71.4467 57.6987 68.3664 59.5481C63.7979 62.2911 74.222 54.7305 79.9852 54.0404C99.0369 51.759 91.3887 101.155 93.4604 86.7726Z" fill="black"/>
<path d="M112.919 158.165C112.552 149.79 107.587 122.559 91.9177 130.002C87.539 132.082 85.8876 133.686 83.2045 136.076C79.225 139.62 88.0633 130.254 93.598 128.506C111.894 122.725 113.555 172.682 112.919 158.165Z" fill="black"/>
<path d="M114.15 156.075C114.517 147.699 119.482 120.469 135.151 127.912C139.53 129.992 141.181 131.596 143.864 133.985C147.844 137.529 139.005 128.164 133.471 126.415C115.174 120.635 113.514 170.591 114.15 156.075Z" fill="black"/>
<path d="M47.0019 206.123C55.2239 204.484 81.3792 195.427 71.6351 181.075C68.9121 177.065 67.0748 175.677 64.3043 173.389C60.1953 169.997 70.7983 177.304 73.3701 182.508C81.8718 199.709 32.752 208.964 47.0019 206.123Z" fill="black"/>
<path d="M95.4808 93.0325C97.1227 84.8111 106.189 58.6587 120.537 68.4075C124.547 71.1318 125.934 72.9696 128.22 75.7407C131.612 79.8508 124.308 69.2455 119.105 66.672C101.906 58.1647 92.6352 107.282 95.4808 93.0325Z" fill="black"/>
<path d="M124.974 80.8875C126.156 78.4146 129.625 73.2735 129.36 79.4499C129.158 84.1543 133.647 84.4195 133.13 81.9325C132.651 79.6277 131.657 76.785 128.56 76.3882C117.922 75.0251 124.321 82.2534 124.974 80.8875Z" fill="black"/>
<path d="M134.336 72.9099C132.217 75.2178 126.761 79.8366 129.267 73.5967C131.176 68.8439 126.615 67.7794 126.253 70.4023C125.917 72.8331 125.922 75.9027 128.991 76.8549C139.535 80.1256 135.507 71.6352 134.336 72.9099Z" fill="black"/>
<path d="M152.586 36.7154C155.801 29.9881 165.238 16.0025 164.517 32.8047C163.968 45.6024 176.179 46.3239 174.773 39.5582C173.471 33.2882 170.765 25.555 162.34 24.4755C133.4 20.7676 150.81 40.4311 152.586 36.7154Z" fill="black"/>
<path d="M178.055 15.0134C172.289 21.2917 157.447 33.8567 164.264 16.8818C169.457 3.95245 157.05 1.05641 156.064 8.19182C155.15 14.8044 155.163 23.1549 163.514 25.7452C192.198 34.6428 181.24 11.5457 178.055 15.0134Z" fill="black"/>
<path d="M156.686 25.8106C157.224 25.7991 153.859 25.97 152.448 26.0927C149.528 26.3468 146.578 26.8011 143.813 27.8086C136.822 30.3564 131.804 38.6882 133.596 46.1136C137.729 63.2384 159.802 56.9717 155.452 42.6005C152.158 31.721 134.819 39.023 141.825 48.7393C141.895 48.8366 138.895 43.6486 139.932 41.315C141.541 37.6964 146.715 35.8244 150.375 36.8003C162.465 40.0243 154.149 59.8278 142.789 56.9309C131.656 54.0915 130.952 39.2231 137.496 31.7998C142.143 26.5282 150.142 25.9508 156.686 25.8106Z" fill="black"/>
<path d="M95.1204 94.2362C95.0848 93.6995 95.4066 97.0536 95.5925 98.457C95.9774 101.363 96.5636 104.29 97.6942 107.007C100.553 113.877 109.102 118.515 116.439 116.392C133.361 111.495 126.11 89.7248 111.949 94.7159C101.228 98.4943 109.301 115.488 118.693 108.054C118.787 107.979 113.739 111.209 111.361 110.277C107.674 108.833 105.572 103.748 106.382 100.047C109.06 87.8248 129.217 95.2441 126.833 106.722C124.496 117.972 109.674 119.342 101.965 113.138C96.49 108.732 95.5542 100.767 95.1204 94.2362Z" fill="black"/>
<path d="M50.1419 206.091C50.6719 205.998 47.3368 206.479 45.9292 206.631C43.0143 206.944 40.0324 207.067 37.1252 206.611C29.7738 205.459 23.2442 198.25 23.5714 190.619C24.3259 173.019 47.1933 174.913 45.6944 189.854C44.5597 201.164 26.1381 197.341 31.1398 186.456C31.1899 186.347 29.246 192.016 30.7139 194.106C32.9899 197.347 38.428 198.186 41.8312 196.523C53.0733 191.03 41.0957 173.2 30.5076 178.232C20.1299 183.164 22.3056 197.89 30.1574 203.912C35.7333 208.19 43.6938 207.214 50.1419 206.091Z" fill="black"/>
<path d="M151.754 25.0216C152.082 24.9261 150.011 25.4641 149.134 25.6587C147.317 26.0617 145.444 26.349 143.578 26.2661C138.859 26.0563 134.232 21.968 133.902 17.1301C133.139 5.97296 147.7 5.55918 147.805 15.0905C147.885 22.306 135.994 21.1904 138.384 13.9714C138.408 13.8991 137.58 17.6125 138.653 18.8277C140.317 20.7121 143.807 20.8591 145.837 19.5704C152.543 15.3132 143.732 4.90757 137.406 8.82737C131.206 12.6693 133.615 21.8064 138.992 25.0537C142.811 27.3598 147.765 26.1843 151.754 25.0216Z" fill="black"/>
<path d="M95.0585 96.0275C95.0138 95.6889 95.2315 97.8169 95.2907 98.7136C95.4133 100.571 95.4131 102.465 95.0479 104.297C94.1244 108.93 89.3813 112.883 84.5493 112.475C73.4057 111.536 75.2063 97.0813 84.6433 98.4232C91.7873 99.4391 88.8801 111.023 82.1074 107.566C82.0395 107.531 85.5843 108.913 86.9483 108.036C89.0634 106.678 89.7384 103.25 88.7726 101.048C85.5824 93.7738 73.9601 100.904 76.8746 107.752C79.7311 114.463 89.1279 113.469 93.1536 108.646C96.0126 105.221 95.6024 100.147 95.0585 96.0275Z" fill="black"/>
<path d="M48.4162 206.575C48.7557 206.538 46.6367 206.83 45.7514 206.984C43.918 207.305 42.0773 207.753 40.3836 208.541C36.101 210.535 33.3826 216.078 34.9216 220.677C38.4708 231.282 52.0891 226.113 48.5526 217.261C45.8753 210.56 35.3078 216.125 40.2695 221.888C40.3191 221.946 38.1383 218.828 38.667 217.296C39.4868 214.919 42.657 213.453 45.0251 213.87C52.8479 215.248 48.6698 228.228 41.3271 227.016C34.1303 225.829 32.8733 216.463 36.6064 211.411C39.2575 207.823 44.2851 207.021 48.4162 206.575Z" fill="black"/>
<path d="M68.7225 65.4084C67.8346 62.8152 66.7106 56.7161 70.8468 61.3108C73.9971 64.8104 77.387 61.8565 75.2766 60.4428C73.3208 59.1328 70.6201 57.7999 68.1315 59.6854C59.5827 66.1622 69.213 66.8406 68.7225 65.4084Z" fill="black"/>
<path d="M69.8195 53.157C69.9225 56.2889 69.2624 63.4067 66.6816 57.1973C64.7159 52.4679 60.7146 54.9018 62.2926 57.028C63.7551 58.9985 65.9082 61.1863 68.7662 59.7164C78.5839 54.6673 69.7626 51.4272 69.8195 53.157Z" fill="black"/>
<path d="M63.9267 178.231C63.0388 175.638 61.9149 169.539 66.051 174.134C69.2013 177.633 72.5913 174.679 70.4808 173.266C68.5251 171.955 65.8244 170.623 63.3357 172.508C54.7869 178.985 64.4172 179.663 63.9267 178.231Z" fill="black"/>
<path d="M65.0237 165.98C65.1268 169.112 64.4666 176.229 61.8858 170.02C59.9201 165.291 55.9188 167.724 57.4968 169.851C58.9593 171.821 61.1124 174.009 63.9705 172.539C73.7881 167.49 64.9668 164.25 65.0237 165.98Z" fill="black"/>
<path d="M77.8721 237.277C76.9841 234.684 75.8602 228.585 79.9963 233.179C83.1466 236.679 86.5366 233.725 84.4262 232.311C82.4704 231.001 79.7697 229.668 77.281 231.554C68.7322 238.031 78.3625 238.709 77.8721 237.277Z" fill="black"/>
<path d="M78.969 225.025C79.0721 228.157 78.4119 235.275 75.8311 229.066C73.8654 224.336 69.8641 226.77 71.4422 228.896C72.9046 230.867 75.0577 233.055 77.9158 231.585C87.7334 226.536 78.9121 223.296 78.969 225.025Z" fill="black"/>
<path d="M118.171 65.5795C119.169 64.0351 121.917 60.9109 121.213 64.9979C120.676 68.1109 123.64 68.6712 123.509 66.9722C123.387 65.3976 122.969 63.4211 120.942 62.8923C113.98 61.0757 117.62 66.4325 118.171 65.5795Z" fill="black"/>
<path d="M125.083 61.0718C123.475 62.4262 119.45 65.033 121.651 61.0954C123.328 58.0962 120.384 56.9979 119.919 58.7121C119.487 60.3008 119.228 62.3437 121.189 63.2397C127.925 66.3176 125.971 60.3238 125.083 61.0718Z" fill="black"/>
<path d="M53.1042 82.857C54.7407 78.6436 59.5431 69.8844 59.1764 80.4077C58.897 88.423 65.1113 88.8749 64.3961 84.6375C63.7332 80.7106 62.3563 75.8672 58.0686 75.1911C43.3401 72.8688 52.2003 85.1842 53.1042 82.857Z" fill="black"/>
<path d="M66.0664 69.2648C63.1318 73.197 55.5784 81.0665 59.0479 70.435C61.6904 62.3372 55.3761 60.5234 54.8743 64.9924C54.4092 69.1339 54.4161 74.3639 58.6659 75.9862C73.2643 81.5589 67.6873 67.0929 66.0664 69.2648Z" fill="black"/>
<path d="M40.2048 177.339C41.8413 173.126 46.6437 164.366 46.2769 174.89C45.9976 182.905 52.2119 183.357 51.4966 179.12C50.8338 175.193 49.4569 170.349 45.1691 169.673C30.4407 167.351 39.3009 179.666 40.2048 177.339Z" fill="black"/>
<path d="M53.167 163.747C50.2324 167.679 42.679 175.549 46.1484 164.917C48.791 156.819 42.4766 155.005 41.9748 159.474C41.5098 163.616 41.5167 168.846 45.7665 170.468C60.3649 176.041 54.7878 161.575 53.167 163.747Z" fill="black"/>
<path d="M96.9179 231.826C98.5544 227.613 103.357 218.853 102.99 229.377C102.711 237.392 108.925 237.844 108.21 233.606C107.547 229.679 106.17 224.836 101.882 224.16C87.1538 221.838 96.014 234.153 96.9179 231.826Z" fill="black"/>
<path d="M109.88 218.234C106.946 222.166 99.3921 230.035 102.862 219.404C105.504 211.306 99.1898 209.492 98.688 213.961C98.223 218.103 98.2298 223.333 102.48 224.955C117.078 230.528 111.501 216.062 109.88 218.234Z" fill="black"/>
<path d="M89.1144 142.205C85.281 140.47 77.4053 135.637 87.2278 136.709C94.7093 137.525 95.5468 132.11 91.5341 132.435C87.8153 132.736 83.1913 133.598 82.2725 137.308C79.1164 150.051 91.2317 143.163 89.1144 142.205Z" fill="black"/>
<path d="M77.261 129.876C80.7445 132.728 87.6041 139.909 77.8875 136.11C70.4866 133.217 68.368 138.622 72.5162 139.381C76.3605 140.083 81.2548 140.45 83.0564 136.841C89.2452 124.443 75.3369 128.3 77.261 129.876Z" fill="black"/>
<path d="M137.954 140.115C141.788 138.38 149.663 133.547 139.841 134.618C132.359 135.434 131.522 130.02 135.535 130.345C139.253 130.646 143.877 131.508 144.796 135.217C147.952 147.96 135.837 141.073 137.954 140.115Z" fill="black"/>
<path d="M149.808 127.785C146.324 130.638 139.465 137.818 149.181 134.02C156.582 131.127 158.701 136.532 154.553 137.29C150.708 137.993 145.814 138.36 144.012 134.75C137.823 122.353 151.732 126.21 149.808 127.785Z" fill="black"/>
<path d="M74.4043 151.228C76.0722 148.969 80.3276 144.504 78.2553 150.765C76.6769 155.534 80.0935 156.838 80.4424 154.173C80.7657 151.704 80.8497 148.566 78.5569 147.447C70.6812 143.606 73.483 152.476 74.4043 151.228Z" fill="black"/>
<path d="M84.108 145.215C81.7596 147.09 76.114 150.564 79.9513 144.753C82.8741 140.327 79.6426 138.189 78.5679 140.79C77.5719 143.201 76.6484 146.344 78.7521 148.024C85.9783 153.797 85.4052 144.18 84.108 145.215Z" fill="black"/>
<path d="M152.664 149.138C150.996 146.878 146.741 142.414 148.813 148.675C150.392 153.444 146.975 154.747 146.626 152.083C146.303 149.614 146.219 146.475 148.512 145.357C156.388 141.516 153.586 150.386 152.664 149.138Z" fill="black"/>
<path d="M142.961 143.125C145.309 145 150.955 148.473 147.117 142.662C144.195 138.237 147.426 136.098 148.501 138.7C149.497 141.11 150.42 144.254 148.317 145.934C141.09 151.706 141.664 142.09 142.961 143.125Z" fill="black"/>
<path d="M72.3635 202.281C80.3979 199.886 107.753 195.664 105.85 212.906C105.318 217.724 104.342 219.81 102.963 223.127C100.917 228.047 106.873 216.63 106.714 210.828C106.186 191.648 58.4388 206.432 72.3635 202.281Z" fill="black"/>
<path d="M94.6013 83.5728C96.0167 76.8373 103.532 54.4941 114.628 58.5911C117.729 59.736 118.788 60.823 120.537 62.4153C123.132 64.777 117.571 58.3376 113.533 57.5939C100.182 55.1353 92.1483 95.2464 94.6013 83.5728Z" fill="black"/>
<path d="M50.1623 206.538C58.4672 205.39 86.1465 205.369 81.6477 222.123C80.3904 226.804 79.1098 228.718 77.2427 231.787C74.4736 236.34 82.0938 225.959 82.8169 220.2C85.2073 201.162 35.7689 208.527 50.1623 206.538Z" fill="black"/>
</svg>
