<svg width="100" height="176" viewBox="0 0 100 176" fill="none" xmlns="http://www.w3.org/2000/svg">
<path d="M69.7995 12.3645C69.0644 16.5252 66.1912 19.4957 66.1912 19.4957C66.1912 19.4957 64.5942 15.2437 65.245 11.5599C65.8959 7.87605 68.2097 0.73055 69.4674 0.952758C70.7251 1.17497 70.5346 8.2039 69.7995 12.3645Z" fill="black"/>
<path d="M68.2704 31.8098C66.3766 33.0515 64.1617 33.0215 64.1617 33.0215C64.1617 33.0215 65.2344 30.8361 66.9112 29.7367C68.588 28.6373 72.2267 26.9152 72.602 27.4876C72.9774 28.0601 70.1642 30.5681 68.2704 31.8098Z" fill="black"/>
<path d="M60.3726 30.4965C61.7627 32.2842 63.868 32.9727 63.868 32.9727C63.868 32.9727 63.5603 30.5577 62.3296 28.9748C61.0988 27.392 58.2133 24.5849 57.6728 25.0051C57.1324 25.4253 58.9825 28.7087 60.3726 30.4965Z" fill="black"/>
<path d="M69.4153 23.3797C67.6466 24.5393 65.5781 24.5113 65.5781 24.5113C65.5781 24.5113 66.5799 22.4703 68.1459 21.4436C69.7119 20.4168 73.1101 18.8085 73.4607 19.3431C73.8112 19.8778 71.184 22.22 69.4153 23.3797Z" fill="black"/>
<path d="M62.0395 22.1532C63.3377 23.8228 65.3039 24.4657 65.3039 24.4657C65.3039 24.4657 65.0165 22.2103 63.8671 20.7321C62.7177 19.2538 60.0228 16.6323 59.5181 17.0247C59.0134 17.4171 60.7413 20.4835 62.0395 22.1532Z" fill="black"/>
<path d="M66.5216 42.2826C64.7104 43.4701 62.5922 43.4415 62.5922 43.4415C62.5922 43.4415 63.6181 41.3514 65.2217 40.3C66.8253 39.2486 70.3053 37.6016 70.6642 38.1491C71.0232 38.6966 68.3328 41.0951 66.5216 42.2826Z" fill="black"/>
<path d="M58.9685 41.0266C60.2979 42.7364 62.3114 43.3948 62.3114 43.3948C62.3114 43.3948 62.0171 41.0852 60.8401 39.5714C59.663 38.0576 56.9033 35.373 56.3865 35.7749C55.8697 36.1767 57.639 39.3169 58.9685 41.0266Z" fill="black"/>
<path d="M64.9257 52.3197C63.226 53.4341 61.2381 53.4073 61.2381 53.4073C61.2381 53.4073 62.2009 51.4458 63.7058 50.4591C65.2107 49.4725 68.4764 47.9268 68.8133 48.4406C69.1502 48.9544 66.6254 51.2053 64.9257 52.3197Z" fill="black"/>
<path d="M57.8374 51.141C59.085 52.7456 60.9746 53.3634 60.9746 53.3634C60.9746 53.3634 60.6984 51.196 59.5938 49.7754C58.4892 48.3547 55.8994 45.8354 55.4144 46.2125C54.9294 46.5897 56.5898 49.5365 57.8374 51.141Z" fill="black"/>
<path d="M62.35 72.2855C60.5816 73.445 58.5134 73.417 58.5134 73.417C58.5134 73.417 59.515 71.3763 61.0808 70.3497C62.6465 69.3231 66.0443 67.715 66.3948 68.2495C66.7453 68.7841 64.1184 71.126 62.35 72.2855Z" fill="black"/>
<path d="M54.9752 71.0592C56.2732 72.7285 58.2392 73.3714 58.2392 73.3714C58.2392 73.3714 57.9519 71.1163 56.8026 69.6383C55.6533 68.1602 52.9588 65.539 52.4542 65.9314C51.9496 66.3238 53.6772 69.3898 54.9752 71.0592Z" fill="black"/>
<path d="M61.1809 100C58.9787 101.444 56.4032 101.41 56.4032 101.41C56.4032 101.41 57.6506 98.8682 59.6004 97.5898C61.5502 96.3115 65.7814 94.3089 66.2178 94.9746C66.6543 95.6403 63.3831 98.5566 61.1809 100Z" fill="black"/>
<path d="M51.9972 98.4734C53.6136 100.552 56.0618 101.353 56.0618 101.353C56.0618 101.353 55.704 98.5445 54.2728 96.7039C52.8417 94.8633 49.4863 91.5992 48.8579 92.0878C48.2295 92.5765 50.3808 96.3945 51.9972 98.4734Z" fill="black"/>
<path d="M63.7106 62.8846C61.9351 64.0487 59.8587 64.0206 59.8587 64.0206C59.8587 64.0206 60.8643 61.9718 62.4363 60.9411C64.0083 59.9104 67.4196 58.2959 67.7714 58.8326C68.1233 59.3693 65.486 61.7206 63.7106 62.8846Z" fill="black"/>
<path d="M56.3064 61.6534C57.6096 63.3294 59.5834 63.9748 59.5834 63.9748C59.5834 63.9748 59.2949 61.7108 58.1411 60.2269C56.9873 58.7429 54.282 56.1113 53.7754 56.5053C53.2688 56.8992 55.0032 59.9774 56.3064 61.6534Z" fill="black"/>
<path d="M61.5739 90.0348C59.4786 91.4086 57.0282 91.3755 57.0282 91.3755C57.0282 91.3755 58.215 88.9576 60.0701 87.7412C61.9253 86.5249 65.9511 84.6195 66.3663 85.2529C66.7816 85.8863 63.6692 88.6611 61.5739 90.0348Z" fill="black"/>
<path d="M52.8361 88.5818C54.374 90.5598 56.7033 91.3214 56.7033 91.3214C56.7033 91.3214 56.3629 88.6496 55.0012 86.8983C53.6395 85.1471 50.447 82.0414 49.8491 82.5063C49.2512 82.9712 51.2981 86.6039 52.8361 88.5818Z" fill="black"/>
<path d="M62.3791 81.6172C60.2062 83.0419 57.6649 83.0075 57.6649 83.0075C57.6649 83.0075 58.8957 80.5 60.8195 79.2386C62.7434 77.9772 66.9183 76.0013 67.349 76.6581C67.7796 77.315 64.552 80.1925 62.3791 81.6172Z" fill="black"/>
<path d="M53.3174 80.1104C54.9123 82.1616 57.328 82.9515 57.328 82.9515C57.328 82.9515 56.9749 80.1806 55.5628 78.3645C54.1507 76.5484 50.8399 73.3277 50.2199 73.8098C49.5998 74.2919 51.7225 78.0592 53.3174 80.1104Z" fill="black"/>
<path d="M61.636 109.408C59.3244 111.423 56.3476 111.792 56.3476 111.792C56.3476 111.792 57.3835 108.662 59.4301 106.878C61.4768 105.094 66.0407 102.112 66.6498 102.811C67.2589 103.509 63.9476 107.393 61.636 109.408Z" fill="black"/>
<path d="M50.7985 109.103C52.9931 111.245 55.9445 111.78 55.9445 111.78C55.9445 111.78 55.0863 108.597 53.1431 106.701C51.2 104.804 46.8111 101.571 46.1636 102.234C45.5161 102.898 48.6038 106.961 50.7985 109.103Z" fill="black"/>
<path d="M61.8967 119.553C59.5851 121.568 56.6082 121.936 56.6082 121.936C56.6082 121.936 57.6441 118.807 59.6908 117.022C61.7375 115.238 66.3013 112.257 66.9105 112.955C67.5196 113.654 64.2083 117.538 61.8967 119.553Z" fill="black"/>
<path d="M51.0591 119.248C53.2538 121.39 56.2052 121.925 56.2052 121.925C56.2052 121.925 55.3469 118.742 53.4038 116.845C51.4607 114.949 47.0717 111.716 46.4243 112.379C45.7768 113.042 48.8645 117.106 51.0591 119.248Z" fill="black"/>
<path d="M62.1574 129.697C59.8458 131.713 56.8689 132.081 56.8689 132.081C56.8689 132.081 57.9048 128.951 59.9515 127.167C61.9982 125.383 66.562 122.401 67.1712 123.1C67.7803 123.799 64.469 127.682 62.1574 129.697Z" fill="black"/>
<path d="M51.3198 129.392C53.5145 131.534 56.4659 132.07 56.4659 132.07C56.4659 132.07 55.6076 128.887 53.6645 126.99C51.7214 125.094 47.3324 121.86 46.685 122.524C46.0375 123.187 49.1252 127.251 51.3198 129.392Z" fill="black"/>
<path d="M66.1224 19.193C66.4259 17.4205 66.4059 20.6127 66.2573 21.5144C64.4772 32.3159 62.83 43.2461 61.4135 54.285C58.2464 78.9652 56.4645 103.115 57.6311 127.873C58.2984 142.035 59.1834 156.428 61.0614 169.655C61.1066 169.973 61.208 170.401 61.1299 170.761C60.8288 172.145 58.4841 158.409 58.3048 157.187C56.8407 147.209 55.7914 136.824 55.4626 125.944C54.41 91.1178 60.4441 52.3547 66.1224 19.193Z" fill="black"/>
<path d="M95.6769 65.6435C94.2103 69.0414 91.1617 70.9932 91.1617 70.9932C91.1617 70.9932 90.6589 67.0466 91.9574 64.0382C93.2559 61.0297 96.6706 55.4066 97.6977 55.8499C98.7249 56.2932 97.1434 62.2457 95.6769 65.6435Z" fill="#E5E5E5"/>
<path d="M90.3997 83.2678C88.1206 84.094 85.8209 83.5163 85.8209 83.5163C85.8209 83.5163 87.4775 81.5045 89.4954 80.7731C91.5132 80.0416 95.7284 79.1455 95.9781 79.8345C96.2278 80.5234 92.6787 82.4417 90.3997 83.2678Z" fill="#E5E5E5"/>
<path d="M82.497 79.9512C83.5039 82.1564 85.5271 83.3929 85.5271 83.3929C85.5271 83.3929 85.8024 80.8015 84.911 78.849C84.0195 76.8966 81.7064 73.2607 81.0398 73.565C80.3732 73.8694 81.4902 77.746 82.497 79.9512Z" fill="#E5E5E5"/>
<path d="M93.4597 75.5358C91.3412 76.3037 89.2035 75.7667 89.2035 75.7667C89.2035 75.7667 90.7434 73.8966 92.6191 73.2167C94.4948 72.5368 98.4131 71.7038 98.6452 72.3442C98.8774 72.9846 95.5783 74.7678 93.4597 75.5358Z" fill="#E5E5E5"/>
<path d="M86.1137 72.4527C87.0496 74.5026 88.9303 75.6521 88.9303 75.6521C88.9303 75.6521 89.1863 73.2431 88.3576 71.4282C87.5289 69.6133 85.3787 66.2335 84.7591 66.5164C84.1394 66.7993 85.1778 70.4029 86.1137 72.4527Z" fill="#E5E5E5"/>
<path d="M86.1547 92.8707C83.8763 93.6966 81.5773 93.1191 81.5773 93.1191C81.5773 93.1191 83.2334 91.1079 85.2507 90.3767C87.2679 89.6454 91.4819 88.7496 91.7315 89.4383C91.9812 90.1271 88.4331 92.0448 86.1547 92.8707Z" fill="#E5E5E5"/>
<path d="M78.2544 89.555C79.261 91.7596 81.2836 92.9958 81.2836 92.9958C81.2836 92.9958 81.5588 90.4051 80.6676 88.4532C79.7764 86.5013 77.464 82.8665 76.7976 83.1707C76.1312 83.475 77.2479 87.3505 78.2544 89.555Z" fill="#E5E5E5"/>
<path d="M82.1894 102.128C79.9659 102.934 77.7223 102.371 77.7223 102.371C77.7223 102.371 79.3385 100.408 81.3072 99.6944C83.2759 98.9808 87.3883 98.1066 87.6319 98.7787C87.8756 99.4508 84.413 101.322 82.1894 102.128Z" fill="#E5E5E5"/>
<path d="M74.4794 98.8926C75.4617 101.044 77.4356 102.25 77.4356 102.25C77.4356 102.25 77.7042 99.7221 76.8345 97.8173C75.9648 95.9124 73.708 92.3651 73.0576 92.662C72.4073 92.959 73.4971 96.7411 74.4794 98.8926Z" fill="#E5E5E5"/>
<path d="M75.1894 121.118C72.9659 121.924 70.7223 121.36 70.7223 121.36C70.7223 121.36 72.3385 119.397 74.3072 118.684C76.2759 117.97 80.3883 117.096 80.6319 117.768C80.8756 118.44 77.413 120.312 75.1894 121.118Z" fill="#E5E5E5"/>
<path d="M67.4794 117.882C68.4617 120.033 70.4356 121.24 70.4356 121.24C70.4356 121.24 70.7042 118.712 69.8345 116.807C68.9648 114.902 66.708 111.354 66.0576 111.651C65.4073 111.948 66.4971 115.731 67.4794 117.882Z" fill="#E5E5E5"/>
<path d="M78.5298 112.069C76.1911 112.916 73.8312 112.323 73.8312 112.323C73.8312 112.323 75.5311 110.259 77.6018 109.508C79.6725 108.758 83.9981 107.838 84.2543 108.545C84.5106 109.252 80.8686 111.221 78.5298 112.069Z" fill="#E5E5E5"/>
<path d="M70.4203 108.665C71.4535 110.928 73.5296 112.197 73.5296 112.197C73.5296 112.197 73.8122 109.538 72.8974 107.534C71.9826 105.53 69.6089 101.799 68.9248 102.112C68.2408 102.424 69.387 106.402 70.4203 108.665Z" fill="#E5E5E5"/>
<path d="M73.1991 130.585C70.6245 131.518 68.0266 130.866 68.0266 130.866C68.0266 130.866 69.898 128.593 72.1775 127.767C74.457 126.941 79.2188 125.928 79.5009 126.707C79.783 127.485 75.7737 129.652 73.1991 130.585Z" fill="#E5E5E5"/>
<path d="M64.2717 126.838C65.4092 129.33 67.6947 130.726 67.6947 130.726C67.6947 130.726 68.0057 127.799 66.9987 125.593C65.9916 123.388 63.3785 119.28 62.6255 119.624C61.8725 119.968 63.1343 124.347 64.2717 126.838Z" fill="#E5E5E5"/>
<path d="M91.4629 70.1355C91.986 69.0092 91.3949 71.1329 91.1327 71.7069C87.9916 78.583 84.9159 85.5689 81.9742 92.6691C75.3971 108.543 69.8392 124.315 66.1361 141.025C64.0179 150.583 62.0029 160.335 60.8608 169.489C60.8333 169.709 60.8233 170.013 60.7063 170.239C60.2551 171.107 61.1784 161.528 61.28 160.682C62.11 153.767 63.2902 146.657 65.0401 139.347C70.6412 115.947 81.6775 91.2072 91.4629 70.1355Z" fill="#E5E5E5"/>
<path d="M6.71335 51.5355C8.86721 55.3656 12.7096 57.2916 12.7096 57.2916C12.7096 57.2916 12.813 52.5689 10.906 49.1778C8.99894 45.7867 4.26812 39.5709 3.11037 40.222C1.95261 40.8731 4.5595 47.7055 6.71335 51.5355Z" fill="#9E9C9C"/>
<path d="M15.1342 71.6911C17.928 72.3835 20.5718 71.4156 20.5718 71.4156C20.5718 71.4156 18.3657 69.2459 15.8921 68.6328C13.4185 68.0198 8.32985 67.4854 8.12056 68.3299C7.91126 69.1744 12.3404 70.9987 15.1342 71.6911Z" fill="#9E9C9C"/>
<path d="M24.0537 66.793C23.1388 69.522 20.9034 71.2335 20.9034 71.2335C20.9034 71.2335 20.2563 68.2076 21.0664 65.7914C21.8765 63.3751 24.1562 58.7944 24.9812 59.071C25.8061 59.3476 24.9687 64.064 24.0537 66.793Z" fill="#9E9C9C"/>
<path d="M10.5602 62.9411C13.1572 63.5847 15.6148 62.685 15.6148 62.685C15.6148 62.685 13.5641 60.6681 11.2647 60.0983C8.96535 59.5284 4.23511 59.0316 4.04056 59.8166C3.84601 60.6017 7.96319 62.2975 10.5602 62.9411Z" fill="#9E9C9C"/>
<path d="M18.8515 58.388C18.001 60.9248 15.9231 62.5157 15.9231 62.5157C15.9231 62.5157 15.3215 59.703 16.0746 57.4569C16.8276 55.2109 18.9468 50.9528 19.7136 51.2099C20.4804 51.467 19.702 55.8512 18.8515 58.388Z" fill="#9E9C9C"/>
<path d="M21.3396 82.503C24.1326 83.1952 26.7756 82.2276 26.7756 82.2276C26.7756 82.2276 24.5702 80.0585 22.0973 79.4457C19.6244 78.8328 14.5372 78.2985 14.328 79.1428C14.1188 79.9871 18.5466 81.8109 21.3396 82.503Z" fill="#9E9C9C"/>
<path d="M30.2566 77.6063C29.3419 80.3346 27.1071 82.0456 27.1071 82.0456C27.1071 82.0456 26.4603 79.0206 27.2701 76.6051C28.08 74.1895 30.359 69.6101 31.1837 69.8866C32.0084 70.1631 31.1713 74.8781 30.2566 77.6063Z" fill="#9E9C9C"/>
<path d="M27.172 92.9421C29.8977 93.6176 32.4771 92.6734 32.4771 92.6734C32.4771 92.6734 30.3248 90.5565 27.9114 89.9584C25.4981 89.3603 20.5334 88.8389 20.3293 89.6628C20.1251 90.4868 24.4463 92.2666 27.172 92.9421Z" fill="#9E9C9C"/>
<path d="M35.8743 88.1634C34.9816 90.8259 32.8007 92.4957 32.8007 92.4957C32.8007 92.4957 32.1694 89.5436 32.9598 87.1862C33.7501 84.8288 35.9743 80.3597 36.7791 80.6295C37.5839 80.8994 36.767 85.5009 35.8743 88.1634Z" fill="#9E9C9C"/>
<path d="M37.7968 114.496C40.5225 115.171 43.1019 114.227 43.1019 114.227C43.1019 114.227 40.9496 112.11 38.5363 111.512C36.1229 110.914 31.1583 110.392 30.9541 111.216C30.7499 112.04 35.0711 113.82 37.7968 114.496Z" fill="#9E9C9C"/>
<path d="M46.4991 109.717C45.6064 112.379 43.4255 114.049 43.4255 114.049C43.4255 114.049 42.7941 111.097 43.5845 108.74C44.3749 106.382 46.599 101.913 47.4039 102.183C48.2087 102.453 47.3917 107.054 46.4991 109.717Z" fill="#9E9C9C"/>
<path d="M32.7283 104.225C35.5952 104.936 38.3082 103.942 38.3082 103.942C38.3082 103.942 36.0444 101.716 33.506 101.087C30.9677 100.458 25.7458 99.9092 25.531 100.776C25.3162 101.642 29.8613 103.515 32.7283 104.225Z" fill="#9E9C9C"/>
<path d="M41.8814 99.1987C40.9425 101.999 38.6486 103.755 38.6486 103.755C38.6486 103.755 37.9846 100.65 38.8159 98.1709C39.6472 95.6913 41.9866 90.9907 42.8331 91.2745C43.6797 91.5583 42.8204 96.3982 41.8814 99.1987Z" fill="#9E9C9C"/>
<path d="M41.3233 125.428C44.4793 126.21 47.4659 125.116 47.4659 125.116C47.4659 125.116 44.9738 122.665 42.1795 121.973C39.3851 121.28 33.6366 120.676 33.4002 121.631C33.1637 122.585 38.1672 124.645 41.3233 125.428Z" fill="#9E9C9C"/>
<path d="M51.3995 119.894C50.3658 122.977 47.8406 124.911 47.8406 124.911C47.8406 124.911 47.1096 121.492 48.0248 118.763C48.9399 116.033 51.5152 110.859 52.4471 111.171C53.379 111.483 52.4331 116.811 51.3995 119.894Z" fill="#9E9C9C"/>
<path d="M12.2471 56.3162C11.4896 55.0512 12.4514 57.4856 12.8323 58.1307C17.3956 65.86 21.8954 73.7271 26.2511 81.7456C35.9894 99.6729 44.5117 117.606 50.9603 136.877C54.649 147.901 58.2398 159.166 60.7257 169.834C60.7855 170.09 60.835 170.448 61.0012 170.699C61.6418 171.668 59.3616 160.473 59.1365 159.486C57.2974 151.424 55.0205 143.174 52.046 134.76C42.5252 107.825 26.4198 79.9825 12.2471 56.3162Z" fill="#9E9C9C"/>
</svg>
