<svg width="197" height="32" viewBox="0 0 197 32" fill="none" xmlns="http://www.w3.org/2000/svg">
<path d="M11.36 27.36C10.5867 27.36 9.92 27.22 9.36 26.94C8.81333 26.6733 8.39333 26.28 8.1 25.76C7.82 25.24 7.68 24.6267 7.68 23.92C7.68 23.7467 7.68667 23.5667 7.7 23.38C7.71333 23.2067 7.73333 23.0267 7.76 22.84C6.66667 22.84 5.68 22.66 4.8 22.3C3.92 21.9267 3.16667 21.42 2.54 20.78C1.91333 20.1267 1.43333 19.3733 1.1 18.52C0.766667 17.6667 0.6 16.76 0.6 15.8C0.6 14.8267 0.766667 13.92 1.1 13.08C1.43333 12.2267 1.91333 11.48 2.54 10.84C3.16667 10.1867 3.92 9.68 4.8 9.32C5.68 8.94667 6.66 8.76 7.74 8.76C8.82 8.76 9.8 8.94 10.68 9.3C11.56 9.64667 12.3133 10.14 12.94 10.78C13.5667 11.4067 14.0467 12.1333 14.38 12.96C14.7133 13.7733 14.88 14.6533 14.88 15.6V23.56C14.88 24.2533 14.7533 24.8867 14.5 25.46C14.2467 26.0467 13.86 26.5067 13.34 26.84C12.82 27.1867 12.16 27.36 11.36 27.36ZM11.18 24.8C11.46 24.8 11.6667 24.6867 11.8 24.46C11.9467 24.2467 12.02 23.96 12.02 23.6V20.08C11.5667 20.48 11.22 20.8667 10.98 21.24C10.7533 21.6133 10.5933 21.96 10.5 22.28C10.4067 22.6 10.3533 22.8733 10.34 23.1C10.34 23.3267 10.34 23.4933 10.34 23.6C10.34 23.8533 10.3733 24.0667 10.44 24.24C10.52 24.4267 10.6267 24.5667 10.76 24.66C10.8933 24.7533 11.0333 24.8 11.18 24.8ZM7.74 20.32C7.92667 20.32 8.10667 20.3133 8.28 20.3C8.45333 20.2733 8.62667 20.24 8.8 20.2C9.02667 19.8533 9.29333 19.5067 9.6 19.16C9.90667 18.8133 10.26 18.4733 10.66 18.14C11.06 17.8067 11.5133 17.4867 12.02 17.18V15.6C12.02 14.9867 11.9133 14.42 11.7 13.9C11.4867 13.3667 11.1867 12.9067 10.8 12.52C10.4133 12.1333 9.96 11.8333 9.44 11.62C8.92 11.3933 8.35333 11.28 7.74 11.28C7.12667 11.28 6.56 11.3933 6.04 11.62C5.52 11.8467 5.06667 12.1667 4.68 12.58C4.29333 12.98 3.99333 13.46 3.78 14.02C3.56667 14.5667 3.46 15.16 3.46 15.8C3.46 16.44 3.56667 17.04 3.78 17.6C3.99333 18.1467 4.29333 18.6267 4.68 19.04C5.06667 19.44 5.52 19.7533 6.04 19.98C6.56 20.2067 7.12667 20.32 7.74 20.32ZM17.2789 23V9H20.1389V14.62H26.2589V9H29.1189V23H26.2589V17.14H20.1389V23H17.2789ZM37.6473 23.24C36.514 23.24 35.5073 23.0067 34.6273 22.54C33.7607 22.0733 33.074 21.4133 32.5673 20.56C32.074 19.6933 31.8273 18.6667 31.8273 17.48V9H34.6873V17.66C34.6873 18.22 34.8073 18.7333 35.0473 19.2C35.2873 19.6533 35.6273 20.02 36.0673 20.3C36.5207 20.58 37.0473 20.72 37.6473 20.72C38.2607 20.72 38.7873 20.58 39.2273 20.3C39.6673 20.02 40.0073 19.6533 40.2473 19.2C40.4873 18.7333 40.6073 18.22 40.6073 17.66V9H43.4673V17.48C43.4673 18.6667 43.214 19.6933 42.7073 20.56C42.214 21.4133 41.5273 22.0733 40.6473 22.54C39.7807 23.0067 38.7807 23.24 37.6473 23.24ZM55.6056 23.22C54.819 23.22 54.1056 23.04 53.4656 22.68C52.839 22.32 52.3456 21.8267 51.9856 21.2C51.6256 20.5733 51.4456 19.8533 51.4456 19.04V12.6C51.4456 12.36 51.3856 12.14 51.2656 11.94C51.1456 11.74 50.9856 11.58 50.7856 11.46C50.5856 11.34 50.3656 11.28 50.1256 11.28C49.8856 11.28 49.6656 11.34 49.4656 11.46C49.279 11.58 49.1256 11.74 49.0056 11.94C48.8856 12.14 48.8256 12.36 48.8256 12.6V23H45.9656V12.94C45.9656 12.1667 46.139 11.4667 46.4856 10.84C46.8323 10.2133 47.319 9.71333 47.9456 9.34C48.5723 8.95333 49.299 8.76 50.1256 8.76C50.9656 8.76 51.699 8.95333 52.3256 9.34C52.9523 9.71333 53.439 10.2133 53.7856 10.84C54.1323 11.4667 54.3056 12.1667 54.3056 12.94V19.38C54.3056 19.62 54.3656 19.84 54.4856 20.04C54.6056 20.24 54.759 20.4 54.9456 20.52C55.1456 20.64 55.3656 20.7 55.6056 20.7C55.8456 20.7 56.0656 20.64 56.2656 20.52C56.4656 20.4 56.6256 20.24 56.7456 20.04C56.8656 19.84 56.9256 19.62 56.9256 19.38V12.94C56.9256 12.1667 57.099 11.4667 57.4456 10.84C57.7923 10.2133 58.279 9.71333 58.9056 9.34C59.5456 8.95333 60.279 8.76 61.1056 8.76C61.9456 8.76 62.6723 8.95333 63.2856 9.34C63.9123 9.71333 64.399 10.2133 64.7456 10.84C65.0923 11.4667 65.2656 12.1667 65.2656 12.94V23H62.4056V12.6C62.4056 12.36 62.3456 12.14 62.2256 11.94C62.119 11.74 61.9656 11.58 61.7656 11.46C61.5656 11.34 61.3456 11.28 61.1056 11.28C60.8656 11.28 60.6456 11.34 60.4456 11.46C60.2456 11.58 60.0856 11.74 59.9656 11.94C59.8456 12.14 59.7856 12.36 59.7856 12.6V19.04C59.7856 19.8533 59.599 20.5733 59.2256 21.2C58.8656 21.8267 58.3723 22.32 57.7456 22.68C57.119 23.04 56.4056 23.22 55.6056 23.22ZM94.3297 23V9H102.19C102.856 9 103.456 9.15333 103.99 9.46C104.536 9.75333 104.97 10.1667 105.29 10.7C105.623 11.2333 105.79 11.8667 105.79 12.6C105.79 13.0667 105.696 13.5133 105.51 13.94C105.323 14.3533 105.07 14.7133 104.75 15.02C104.43 15.3267 104.056 15.5667 103.63 15.74C104.123 15.9 104.556 16.16 104.93 16.52C105.316 16.8667 105.616 17.28 105.83 17.76C106.056 18.2267 106.17 18.7333 106.17 19.28C106.17 20.0267 105.996 20.68 105.65 21.24C105.316 21.8 104.87 22.2333 104.31 22.54C103.75 22.8467 103.123 23 102.43 23H94.3297ZM97.1897 20.48H101.61C101.93 20.48 102.216 20.4067 102.47 20.26C102.723 20.1 102.923 19.8933 103.07 19.64C103.23 19.3733 103.31 19.0867 103.31 18.78C103.31 18.46 103.23 18.1733 103.07 17.92C102.923 17.6667 102.723 17.4667 102.47 17.32C102.216 17.16 101.93 17.08 101.61 17.08H97.1897V20.48ZM97.1897 14.68H101.35C101.643 14.68 101.91 14.6133 102.15 14.48C102.39 14.3333 102.576 14.14 102.71 13.9C102.856 13.66 102.93 13.3933 102.93 13.1C102.93 12.8067 102.856 12.54 102.71 12.3C102.576 12.06 102.39 11.8733 102.15 11.74C101.91 11.5933 101.643 11.52 101.35 11.52H97.1897V14.68ZM108.373 23V9H111.233V14.62H117.353V9H120.213V23H117.353V17.14H111.233V23H108.373ZM121.621 23L126.181 10.56C126.408 9.96 126.761 9.51333 127.241 9.22C127.734 8.91333 128.288 8.76 128.901 8.76C129.514 8.76 130.068 8.90667 130.561 9.2C131.054 9.48 131.408 9.92667 131.621 10.54L136.201 23H133.061L132.121 20.18H125.601L124.621 23H121.621ZM126.461 17.66H131.281L129.261 11.52C129.234 11.4267 129.188 11.36 129.121 11.32C129.068 11.28 129.001 11.26 128.921 11.26C128.841 11.26 128.774 11.2867 128.721 11.34C128.668 11.38 128.628 11.44 128.601 11.52L126.461 17.66ZM137.298 23V9H143.558C144.478 9 145.312 9.20667 146.058 9.62C146.818 10.02 147.418 10.58 147.858 11.3C148.312 12.02 148.538 12.86 148.538 13.82C148.538 14.7533 148.318 15.58 147.878 16.3C147.438 17.0067 146.858 17.5667 146.138 17.98L147.418 20.22C147.472 20.3 147.538 20.3667 147.618 20.42C147.698 20.46 147.792 20.48 147.898 20.48H149.258V23H147.458C146.898 23 146.385 22.86 145.918 22.58C145.465 22.3 145.105 21.9333 144.838 21.48L143.258 18.64C143.138 18.64 143.012 18.64 142.878 18.64C142.758 18.64 142.638 18.64 142.518 18.64H140.158V23H137.298ZM140.158 16.12H143.218C143.672 16.12 144.085 16.0333 144.458 15.86C144.832 15.6733 145.125 15.4067 145.338 15.06C145.565 14.7133 145.678 14.3 145.678 13.82C145.678 13.34 145.565 12.9267 145.338 12.58C145.112 12.2333 144.812 11.9733 144.438 11.8C144.078 11.6133 143.672 11.52 143.218 11.52H140.158V16.12ZM149.453 23L154.013 10.56C154.24 9.96 154.593 9.51333 155.073 9.22C155.566 8.91333 156.12 8.76 156.733 8.76C157.346 8.76 157.9 8.90667 158.393 9.2C158.886 9.48 159.24 9.92667 159.453 10.54L164.033 23H160.893L159.953 20.18H153.433L152.453 23H149.453ZM154.293 17.66H159.113L157.093 11.52C157.066 11.4267 157.02 11.36 156.953 11.32C156.9 11.28 156.833 11.26 156.753 11.26C156.673 11.26 156.606 11.2867 156.553 11.34C156.5 11.38 156.46 11.44 156.433 11.52L154.293 17.66ZM170.391 23C169.565 23 168.838 22.8133 168.211 22.44C167.585 22.0533 167.098 21.5467 166.751 20.92C166.405 20.28 166.231 19.58 166.231 18.82V11.52H162.331V9H172.991V11.52H169.091V19.16C169.091 19.52 169.218 19.8333 169.471 20.1C169.725 20.3533 170.031 20.48 170.391 20.48H171.391V23H170.391Z" fill="url(#paint0_linear_56_38)"/>
<path d="M80.347 21.6892L80.8866 22.17C80.3701 22.4834 79.8262 22.7461 79.2545 22.9584C78.6524 23.182 78.0276 23.3417 77.3797 23.4373V22.8208C77.8977 22.7272 78.4036 22.5858 78.8971 22.3965C79.4033 22.2023 79.8868 21.9665 80.347 21.6892ZM82.9316 20.3614L82.3971 19.8851C82.6786 19.5128 82.9162 19.1141 83.1093 18.6893C83.3107 18.2463 83.463 17.7842 83.5666 17.304H84.4021C84.2787 17.8727 84.0976 18.4084 83.8599 18.9122C83.6129 19.4354 83.3038 19.9182 82.9316 20.3614ZM83.5683 14.696C83.4649 14.2054 83.3121 13.7367 83.1093 13.2906C82.9174 12.8684 82.6813 12.475 82.4013 12.1111L82.9331 11.6372C83.3224 12.0944 83.647 12.5898 83.9079 13.1239C84.1536 13.6272 84.3265 14.1508 84.4267 14.696H83.5683ZM69.6624 10.9697C70.9934 9.66214 72.6245 8.85915 74.5752 8.56585V9.17728C72.8594 9.47403 71.4045 10.2158 70.2303 11.4079C68.9547 12.7029 68.3045 14.241 68.3045 16C68.3045 17.7591 68.9548 19.2944 70.2312 20.583C71.4055 21.7685 72.8599 22.5122 74.5752 22.8198V23.4309C72.6247 23.1264 70.9935 22.3178 69.6624 21.0102C68.2117 19.585 67.5 17.9226 67.5 16C67.5 14.063 68.2125 12.3942 69.6624 10.9697ZM80.3875 10.306C79.915 10.0189 79.4212 9.77763 78.9064 9.58266C78.4078 9.39383 77.8988 9.2566 77.3797 9.17125V8.55496C78.0277 8.6423 78.6524 8.79793 79.2545 9.0215C79.8319 9.23586 80.381 9.50552 80.9024 9.83079L80.3875 10.306ZM76 19.3907C75.2565 18.8133 74.5536 18.2005 73.891 17.5522C73.213 16.8887 72.891 16.1371 72.891 15.2764C72.891 14.5116 73.1771 13.8658 73.7784 13.3127C74.3794 12.7599 75.1096 12.4799 76 12.4799C76.8904 12.4799 77.6206 12.7599 78.2216 13.3127C78.8229 13.8658 79.109 14.5116 79.109 15.2764C79.109 16.1371 78.787 16.8887 78.109 17.5522C77.4464 18.2005 76.7435 18.8133 76 19.3907ZM76 16.5C76.3833 16.5 76.7339 16.3776 77.0206 16.122C77.3098 15.8644 77.4699 15.5264 77.4699 15.1357C77.4699 14.7505 77.3038 14.4217 77.0278 14.1659C76.7419 13.9009 76.3889 13.7714 76 13.7714C75.6111 13.7714 75.2581 13.9009 74.9722 14.1659C74.6962 14.4217 74.5301 14.7505 74.5301 15.1357C74.5301 15.5264 74.6902 15.8644 74.9794 16.122C75.2661 16.3776 75.6167 16.5 76 16.5Z" fill="url(#paint1_linear_56_38)" stroke="black"/>
<defs>
<linearGradient id="paint0_linear_56_38" x1="98.5" y1="0" x2="98.5" y2="32" gradientUnits="userSpaceOnUse">
<stop stop-color="#CB4900"/>
<stop offset="1"/>
</linearGradient>
<linearGradient id="paint1_linear_56_38" x1="76" y1="8" x2="76" y2="24" gradientUnits="userSpaceOnUse">
<stop stop-color="#CB4900"/>
<stop offset="1"/>
</linearGradient>
</defs>
</svg>
