<?xml version="1.0" encoding="UTF-8"?>
<!DOCTYPE svg PUBLIC "-//W3C//DTD SVG 1.1//EN" "http://www.w3.org/Graphics/SVG/1.1/DTD/svg11.dtd">
<svg version="1.1" xmlns="http://www.w3.org/2000/svg" xmlns:xlink="http://www.w3.org/1999/xlink" x="0" y="0" width="876" height="1046" viewBox="0, 0, 876, 1046">
  <defs>
    <clipPath id="Clip_1">
      <path d="M-0,1046 L875.513,1046 L875.513,0.14 L-0,0.14 z"/>
    </clipPath>
  </defs>
  <g id="Layer_1">
    <path d="M381.618,0.14 C388.618,0.14 395.617,0.14 402.616,0.14 C402.917,0.794 402.765,1.317 402.163,1.711 C395.467,3.198 388.769,3.199 382.068,1.719 C381.466,1.322 381.317,0.795 381.618,0.14" fill="#BBA892"/>
    <path d="M381.618,0.14 C381.605,0.423 381.581,0.705 381.548,0.986 C379.561,2.816 377.57,2.808 375.575,0.999 C375.624,0.714 375.639,0.428 375.619,0.14 C377.619,0.14 379.619,0.14 381.618,0.14" fill="#DFD6CD"/>
    <g clip-path="url(#Clip_1)">
      <path d="M402.696,0.925 C402.704,0.66 402.678,0.398 402.616,0.14 C404.616,0.14 406.615,0.14 408.615,0.14 C408.644,0.415 408.663,0.69 408.674,0.966 C406.668,2.812 404.675,2.844 402.696,0.925" fill="#DBD1C6"/>
      <path d="M532.529,921.977 C534.028,898.982 535.527,875.987 537.064,852.415 C545.402,859.59 553.522,866.575 561.64,873.562 C569.419,880.258 569.446,880.282 562.91,888.481 C553.174,900.696 543.393,912.876 533.632,925.071 C531.179,924.783 532.263,923.234 532.529,921.977 z M231.504,779.926 C232.731,765.021 234.124,750.128 235.097,735.207 C235.446,729.856 236.819,725.461 240.532,721.358 C244.661,716.795 247.292,711.105 249.001,705.133 C249.673,702.781 250.447,702.491 252.63,703.732 C262.46,709.321 272.684,714.122 283.755,718.348 C264.841,737.745 248.438,758.788 231.504,779.926 z M595.521,641.151 C624.76,603.378 641.136,560.038 650.558,513.701 C651.318,509.961 651.012,505.425 653.087,502.689 C655.239,499.851 660.16,500.815 663.832,499.946 C674.752,497.361 685.415,494.195 693.828,486.203 C711.796,469.136 710.628,432.305 691.237,416.084 C687.25,412.749 686.963,410.222 688.777,405.883 C693.666,394.193 696.777,381.923 699.137,369.509 C702.68,350.875 706.009,332.196 705.196,313.073 C703.677,277.344 695.113,243.106 683.591,209.456 C666.908,160.733 640.837,117.991 602.723,83.058 C547.809,32.727 482.936,5.688 408.674,0.966 C406.681,0.953 404.689,0.939 402.696,0.925 C395.647,0.945 388.597,0.966 381.548,0.986 C379.557,0.99 377.566,0.995 375.575,0.999 C336.614,3.241 299.434,12.563 264.155,29.265 C247.587,37.109 231.955,46.563 217.072,57.275 C214.49,59.134 212.7,61.746 208.888,62.404 C172.629,68.664 138.595,80.98 107.505,100.907 C57.857,132.729 24.227,177.577 1.654,231.373 C-2.348,240.911 0.923,246.518 11.342,248.193 C16.84,249.076 22.314,248.62 27.728,247.61 C43.71,244.63 58.556,238.362 73.287,231.758 C74.851,231.057 76.289,229.451 78.503,230.484 C77.846,231.49 77.251,232.474 76.587,233.409 C45.936,276.493 36.238,323.864 47.66,375.49 C53.719,402.876 65.134,428.06 79.723,451.878 C81.19,454.273 81.415,455.724 79.255,458.121 C71.068,467.208 67.845,478.199 68.179,490.316 C68.846,514.579 80.253,530.24 101.242,535.678 C109.357,537.781 117.678,538.243 125.998,538.411 C128.807,538.468 129.985,539.453 130.83,542.104 C135.069,555.412 140.122,568.425 145.931,581.127 C146.965,583.387 146.877,584.963 145.446,587.011 C131.941,606.338 122.898,627.611 118.102,650.687 C112.611,677.101 114.965,701.753 134.527,722.411 C136.215,724.193 135.923,725.983 135.576,727.941 C134.445,734.33 133.169,740.696 132.16,747.104 C127.596,776.086 124.504,805.179 126.189,834.586 C127.251,853.126 129.782,871.442 138.022,888.317 C144.577,901.74 153.17,913.452 168.851,917.487 C176.941,919.568 185.122,920.885 193.48,921.023 C219.725,921.456 243.12,913.012 264.377,898.084 C269.496,894.49 274.348,890.517 279.63,886.483 C280.625,897.145 281.589,907.406 282.538,917.668 C286.109,956.283 290.662,994.776 296.811,1033.07 C297.542,1037.63 299.058,1041.55 304.459,1042.09 C309.151,1042.56 311.674,1040.29 313.536,1034.12 C314.604,1032.38 314.055,1030.53 313.78,1028.76 C311.479,1013.95 309.266,999.13 307.362,984.263 C304.55,962.308 302.283,940.292 300.038,918.275 C298.436,902.557 297.408,886.784 295.875,871.058 C295.187,864.012 289.892,860.463 283.154,862.471 C278.936,863.728 275.344,865.941 272.134,869.054 C264.1,876.844 255.355,883.766 245.625,889.368 C223.223,902.267 199.588,907.364 174.065,900.763 C170.245,899.775 167.068,897.975 164.19,895.243 C154.554,886.098 149.919,874.366 147.4,861.825 C143.487,842.342 142.346,822.69 143.652,802.736 C144.949,782.924 147.159,763.285 150.416,743.734 C151.272,738.591 151.397,738.497 155.966,740.436 C175.032,748.528 194.317,749.695 213.861,742.343 C216.801,741.237 217.437,742.12 216.991,744.937 C216.053,750.858 215.884,756.86 215.37,762.824 C214.113,777.406 213.047,792.005 211.807,806.59 C211.324,812.282 213.303,816.52 217.908,818.452 C221.988,820.165 225.844,818.811 229.49,814.039 C234.445,807.554 238.934,800.725 243.814,794.181 C258.954,773.881 274.04,753.508 291.807,735.386 C303.576,723.382 298.472,725.696 314.437,729.045 C319.442,730.095 321.615,732.632 322.691,737.492 C326.833,756.197 331.676,774.739 336.088,793.383 C336.891,796.776 337.534,800.383 340.54,802.652 C342.992,804.504 343.942,807.011 344.736,809.791 C361.758,869.381 379.045,928.895 396.09,988.478 C398.225,995.94 401.471,999.236 406.714,999.172 C411.589,999.112 414.321,996.294 416.506,988.803 C423.691,964.175 430.836,939.535 438.017,914.906 C448.463,879.082 458.759,843.214 469.344,807.43 C469.96,805.349 470.427,803.169 472.181,801.696 C475.314,799.064 476.381,795.45 477.36,791.688 C483.447,768.311 489.415,744.903 495.321,721.48 C496.269,717.719 498.111,715.404 501.741,713.963 C508.081,711.447 514.44,708.902 520.351,705.445 C522.827,703.996 524.642,704.653 526.594,706.432 C535.946,714.954 545.168,723.618 554.386,732.282 C565.789,742.999 577.319,753.581 588.726,764.295 C608.512,782.88 628.243,801.511 646.528,821.586 C653.242,828.958 659.818,836.505 665.302,844.927 C667.779,848.731 668.478,852.469 667.022,856.751 C666.215,859.123 665.307,861.433 664.273,863.713 C658.732,875.936 651.092,886.858 643.197,897.603 C632.536,912.116 620.773,925.707 608.588,938.966 C596.173,952.477 583.225,965.384 569.034,977.04 C565.855,979.651 563.452,979.772 560.524,976.634 C553.483,969.088 545.799,962.171 539.059,954.304 C536.348,951.14 536.12,949.217 538.918,945.917 C555.297,926.602 570.936,906.682 586.476,886.689 C591.746,879.907 591.12,875.373 584.609,869.925 C578.989,865.222 573.288,860.616 567.751,855.813 C556.683,846.211 545.576,836.655 534.666,826.872 C530.955,823.545 526.812,823.008 523.158,825.006 C519.475,827.021 517.922,830.553 518.704,835.727 C519.13,838.545 519.273,841.355 519.268,844.19 C519.233,863.004 517.585,881.732 516.465,900.493 C515.413,918.104 513.873,935.668 512.07,953.202 C509.482,978.375 506.3,1003.48 501.85,1028.41 C501.495,1030.4 501.118,1032.37 502.44,1034.18 C502.819,1038.5 504.924,1041.41 509.37,1042.04 C514.663,1042.79 517.221,1039.48 518.839,1035.07 C532.261,1044.59 544.589,1046.25 554.066,1045.97 C567.085,1045.57 575.396,1036.91 575.62,1023.99 C575.72,1018.24 574.608,1012.74 572.895,1007.32 C571.95,1004.33 569.409,1000.86 570.237,998.557 C571.17,995.958 575.15,994.514 577.684,992.422 C612.582,963.602 642.338,930.109 667.845,892.802 C674.513,883.049 680.265,872.782 683.794,861.365 C686.585,852.33 685.588,844.038 680.355,836.139 C676.856,830.857 673.151,825.743 669.028,820.944 C641.508,788.921 610.33,760.565 579.571,731.792 C565.976,719.075 552.286,706.459 538.418,693.592 C540.747,691.967 542.636,690.627 544.547,689.318 C564.072,675.943 581.043,659.856 595.521,641.151" fill="#6E4100"/>
      <path d="M313.536,1034.12 C310.538,1019.46 308.563,1004.63 306.712,989.799 C303.85,966.879 301.277,943.92 298.86,920.948 C297.241,905.571 296.013,890.15 294.806,874.734 C294.447,870.148 294.725,865.227 289.33,863.577 C283.877,861.909 279.087,864.572 275.302,868.088 C266.49,876.272 257.426,884.07 247.018,890.17 C224.778,903.205 201.213,908.363 175.614,902.689 C162.818,899.853 156.789,890.306 151.803,879.778 C145.96,867.44 143.872,854.074 142.697,840.616 C139.72,806.519 144.081,772.9 149.681,739.38 C149.962,737.697 149.907,735.899 152.642,737.272 C173.799,747.896 195.371,748.544 217.292,739.749 C217.575,739.636 217.944,739.735 218.686,739.735 C217.866,749.846 217.064,759.927 216.226,770.005 C215.137,783.094 213.93,796.173 212.966,809.27 C212.662,813.401 214.942,816.305 218.833,817.583 C222.938,818.932 225.889,816.929 228.23,813.702 C236.342,802.517 244.258,791.183 252.617,780.185 C266.625,761.754 281.023,743.638 297.614,727.385 C300.028,725.021 302.208,723.739 305.407,725.407 C305.7,725.56 306.03,725.645 306.348,725.743 C311.542,727.349 318.419,726.532 321.672,730.44 C324.735,734.119 324.657,740.427 325.916,745.59 C329.814,761.575 333.714,777.559 337.56,793.556 C338.464,797.317 339.147,801.094 343.262,802.914 C345.042,803.702 344.96,805.704 345.396,807.22 C362.906,868.091 380.37,928.975 397.811,989.866 C399.101,994.37 401.177,997.967 406.491,997.975 C411.665,997.983 413.47,994.379 414.72,990.08 C431.615,931.978 448.528,873.882 465.507,815.805 C467.325,809.587 468.708,803.511 473.429,798.07 C477.729,793.114 477.578,785.29 479.328,778.728 C484.598,758.975 489.575,739.143 494.496,719.3 C495.257,716.229 496.618,714.523 499.628,713.357 C507.072,710.475 514.462,707.389 521.329,703.253 C523.428,701.989 524.727,702.414 526.454,704.087 C554.919,731.66 584.659,757.875 613.008,785.581 C630.05,802.236 646.538,819.32 661.915,837.552 C669.812,846.915 670.343,855.551 664.824,866.15 C655.055,884.913 642.479,901.642 629.062,917.776 C613.187,936.867 596.336,955.077 577.669,971.524 C573.556,975.147 569.561,980.862 564.748,981.067 C560.41,981.253 557.089,974.892 553.489,971.261 C547.629,965.351 542.105,959.107 536.218,953.225 C533.88,950.89 534.17,949.388 536.18,947.035 C553.271,927.033 569.451,906.292 585.644,885.564 C590.369,879.517 589.932,875.86 584.071,871.145 C567.199,857.574 551.023,843.194 534.867,828.793 C531.341,825.65 527.779,823.476 523.283,826.275 C519.041,828.915 519.551,832.729 520.328,837.257 C521.707,845.295 520.74,853.541 520.362,861.674 C519.698,875.953 518.684,890.219 517.673,904.48 C515.814,930.684 513.282,956.82 509.988,982.89 C507.82,1000.044 505.095,1017.11 502.44,1034.18 C439.472,1034.16 376.504,1034.14 313.536,1034.12" fill="#4576AD"/>
      <path d="M875.501,527.258 C875.557,559.299 854.792,585.247 821.385,595.049 C808.019,598.971 794.18,599.597 780.462,600.914 C764.401,602.457 750.006,607.055 738.562,619.296 C732.068,626.243 721.154,625.975 714.126,619.665 C707.278,613.518 706.228,602.627 712.447,595.288 C724.843,580.658 740.986,572.179 759.523,568.037 C772.719,565.089 786.248,564.718 799.611,563.06 C813.651,561.319 825.968,556.37 834.877,544.716 C843.051,534.023 842.878,522.864 836.652,511.547 C829.68,498.875 818.888,490.653 805.362,485.856 C798.208,483.319 793.382,478.676 792.51,470.852 C791.661,463.228 794.361,457.134 801.057,453.068 C805.45,450.4 810.386,449.75 815.032,451.375 C844.576,461.71 865.78,480.514 874.812,511.362 C875.091,512.316 875.454,513.296 875.47,514.268 C875.542,518.597 875.501,522.928 875.501,527.258" fill="#FF7164"/>
    </g>
    <path d="M709.963,653.718 C710,667.598 699.417,678.481 685.932,678.43 C674.474,678.386 665.557,669.242 665.586,657.567 C665.62,644.235 676.441,633.169 689.543,633.068 C701.092,632.978 709.931,641.917 709.963,653.718" fill="#FF7164"/>
    <path d="M635.721,504.172 C631.486,530.568 623.995,556.028 613.017,580.381 C579.835,653.989 523.361,698.489 443.978,712.482 C407.399,718.93 370.274,721.302 333.166,715.072 C304.797,710.31 278.242,700.721 253.634,685.752 C251.42,684.405 250.442,682.705 249.799,680.354 C243.805,658.426 230.027,643.437 208.887,635.344 C205.712,634.129 205.462,633.113 207.109,630.588 C211.741,623.485 216.322,616.348 220.876,609.195 C226.078,601.027 231.126,592.768 231.462,582.672 C232.02,565.911 223.533,553.971 207.575,548.938 C206.768,548.102 204.927,549.242 204.681,547.644 C204.475,546.311 205.807,545.691 206.761,545.124 C211.118,542.539 214.54,538.895 218.05,535.346 C234.471,518.746 234.207,501.584 220.693,483.861 C205.534,463.981 181.202,459.439 159.667,472.198 C150.825,477.436 143.908,484.879 139.357,494.322 C138.504,496.092 138.479,498.715 135.686,499.062 C130.616,481.742 128.103,463.973 126.875,446.038 C124.175,406.618 126.483,367.529 135.644,328.992 C144.972,289.746 161.065,253.771 187.715,223.043 C216.729,189.589 253.447,168.503 295.562,156.066 C298.967,155.061 299.437,156.852 300.342,159.088 C318.817,204.709 345.235,245.143 380.235,279.76 C402.497,301.778 427.71,319.404 458.21,328.372 C459.645,328.793 461.08,329.22 462.533,329.572 C470.005,331.387 474.03,327.991 473.866,320.333 C473.635,309.49 472.347,298.758 470.921,288.03 C470.77,286.89 470.75,285.733 470.613,283.795 C478.785,291.506 486.58,298.66 494.937,305.174 C519.62,324.415 547.302,337.9 576.746,348.014 C583.041,350.177 587.089,347.819 588.619,341.346 C591.219,330.349 590.911,319.208 590.133,308.052 C589.913,304.909 589.64,301.77 589.39,298.61 C591.348,298.264 591.756,299.894 592.577,300.74 C603.157,311.645 614.395,321.78 627.092,330.187 C629.081,331.504 629.997,333.189 630.53,335.378 C640.831,377.694 646.446,420.4 641.378,464.01 C639.074,463.941 638.535,461.9 637.626,460.446 C622.292,435.917 592.234,432.504 571.356,451.115 C560.644,460.664 554.253,472.802 555.938,487.816 C557.132,498.459 563.496,505.996 572.48,510.822 C586.337,518.264 601.064,520.222 616.372,515.296 C622.285,513.393 626.773,509.582 631.129,505.386 C632.153,504.399 633.348,501.19 635.721,504.172" fill="#FEF8EA"/>
    <path d="M158.644,93.019 C170.535,87.83 183.001,84.413 195.56,81.391 C208.658,78.238 221.955,76.137 235.399,75.064 C242.764,74.475 246.378,69.032 243.019,62.705 C241.507,59.855 242.877,59.274 244.602,58.223 C259.415,49.197 274.868,41.463 291.049,35.197 C330.34,19.984 371.172,14.256 412.988,17.388 C477.853,22.245 535.258,45.875 584.633,88.5 C592.819,95.567 600.677,102.967 607.601,111.306 C608.846,113.134 607.853,114.843 607.252,116.524 C598.79,140.208 577.205,153.733 552.135,151.089 C551.652,151.038 551.159,150.822 550.498,151.402 C559.163,158.297 569.255,161.058 579.988,161.74 C597.153,162.83 613.333,158.72 629.01,152.047 C631.63,150.931 634.143,148.692 637.406,150.11 C646.492,162.166 652.609,175.839 658.504,189.575 C671.476,219.805 680.64,251.175 686.321,283.6 C691.553,313.468 688.855,342.879 682.177,372.152 C679.88,382.222 676.97,392.093 673.377,401.779 C672.454,404.265 671.397,405.074 668.707,404.21 C665.408,403.15 661.305,403.505 658.712,401.635 C656.046,399.714 657.517,395.406 657.149,392.187 C655.247,375.547 652.369,359.075 648.821,342.281 C651.686,342.816 654.068,343.443 656.486,343.673 C660.606,344.064 664.44,341.089 665.31,337.088 C666.116,333.38 663.849,329.053 659.88,328.125 C642.972,324.171 630.232,313.327 617.676,302.44 C604.933,291.39 593.513,279.01 584.853,264.368 C582.548,260.471 579.243,259.109 575.135,260.385 C570.912,261.698 569.182,265.034 569.655,269.363 C571.1,282.586 572.563,295.806 574.14,309.013 C574.855,315.002 574.415,320.993 574.586,326.98 C574.667,329.852 573.438,329.799 571.238,328.969 C532.86,314.497 499.369,292.851 472.293,261.748 C470.325,259.486 468.352,257.221 466.257,255.078 C463.851,252.616 461.006,251.655 457.627,253.057 C454.143,254.503 452.568,257.071 452.562,260.844 C452.542,273.535 454.752,286.014 456.031,298.581 C456.432,302.521 456.864,306.457 457.35,311.038 C447.819,308.303 439.479,304.001 431.405,299.242 C405.794,284.148 384.876,263.79 366.583,240.605 C344.168,212.198 325.652,181.523 313.187,147.409 C311.478,142.732 310.052,137.973 309.428,132.961 C308.738,127.416 305.258,124.622 300.365,125.103 C295.846,125.547 293.07,128.897 293.637,134.383 C294.078,138.652 292.871,140.219 288.59,141.514 C247.024,154.083 210.264,174.806 180.493,206.884 C155.965,233.313 139.028,264.208 127.689,298.285 C119.039,324.28 113.937,350.98 111.527,378.264 C110.149,393.867 109.787,409.482 109.611,425.119 C107.015,425.062 106.554,422.788 105.727,421.122 C89.781,389.004 80.072,355.315 82.477,319.149 C84.614,287.022 95.702,257.897 114.673,231.791 C123.823,219.2 134.413,208.007 146.256,197.971 C146.618,197.643 147.262,197.661 147.424,197.059 C147.108,197.388 146.697,197.574 146.293,197.819 C139.342,202.64 131.776,206.305 124.273,210.076 C123.115,210.657 121.816,211.198 120.6,210.057 C123.026,206.312 126.968,204.339 130.368,201.745 C134.763,198.391 136.143,193.954 133.84,190.114 C131.38,186.016 126.829,185.139 121.629,188.116 C99.258,200.923 76.638,213.231 52.76,223.058 C49.386,224.446 45.932,225.644 42.516,226.93 C41.643,222.968 44.151,219.908 45.63,216.757 C57.929,190.55 73.15,166.278 92.659,144.691 C110.46,124.994 130.482,108.269 153.874,95.653 C155.376,94.618 157.24,94.236 158.644,93.019" fill="#BB9D8D"/>
    <path d="M132.016,664.511 C134.618,636.264 147.878,603.596 175.133,577.341 C180.412,572.255 186.618,568.334 193.637,565.808 C199.31,563.766 204.802,563.384 209.609,567.532 C214.85,572.053 216.343,578.025 215.068,584.712 C214.016,590.231 210.97,594.831 208.017,599.458 C202.304,608.41 195.494,616.696 191.294,626.568 C189.804,630.07 188.447,633.657 187.392,637.31 C185.54,643.724 188.149,647.701 194.716,648.576 C213.415,651.068 225.386,662.242 232.516,678.825 C239.794,695.75 231.302,715.302 212.873,723.868 C169.421,744.064 130.172,709.976 132.016,664.511" fill="#FEF8EA"/>
    <path d="M135.686,499.062 C141.42,485.886 149.861,475.178 163.137,468.847 C188.364,456.817 215.282,467.351 227.8,492.851 C235.844,509.237 230.767,524.337 219.664,535.55 C215.7,539.554 211.971,543.827 206.828,546.492 C203.285,548.328 208.033,547.895 207.576,548.938 C198.765,547.151 190.585,549.322 182.629,552.903 C172.975,552.784 163.678,550.969 154.901,546.872 C152.066,545.549 149.312,544.007 147.7,541.103 C142.576,527.409 138.523,513.409 135.686,499.062" fill="#FFD5BA"/>
    <path d="M635.721,504.172 C634.531,503.002 633.927,504.23 633.361,504.866 C618.173,521.891 599.414,521.739 579.751,515.56 C567.499,511.71 558.43,503.876 555.13,490.956 C552.122,479.178 556.109,468.698 562.62,459.087 C575.128,440.624 596.841,433.484 617.291,441.182 C628.425,445.373 635.581,454.043 641.378,464.01 C640.151,477.49 638.759,490.947 635.721,504.172" fill="#FFD5BA"/>
    <path d="M120.6,210.057 C129.788,206.785 137.731,201.067 146.462,196.899 C147.452,196.65 147.721,197.114 147.557,198.006 C122.097,220.426 102.387,246.821 91.672,279.346 C78.66,318.842 81.984,357.747 96.333,396.157 C100.054,406.12 104.029,415.996 109.611,425.119 C109.654,425.449 109.701,425.779 109.739,426.109 C111.345,440.059 109.906,441.995 96.389,445.399 C93.948,446.014 93.899,444.244 93.292,443.248 C81.49,423.901 71.689,403.609 65.752,381.674 C47.87,315.606 66.577,260.271 115.43,213.928 C116.982,212.457 118.869,211.34 120.6,210.057" fill="#FEFEFE"/>
    <path d="M406.138,960.136 C402.213,946.599 398.486,933.754 394.765,920.907 C392.408,912.768 390.341,904.531 387.633,896.511 C384.768,888.028 387.822,879.998 389.019,871.92 C392.499,848.428 396.561,825.021 400.389,801.58 C401.264,796.22 398.064,791.997 396.225,787.456 C392.996,779.482 392.837,779.546 400.135,775.713 C405.188,773.059 413.809,774.465 417.679,778.528 C418.329,779.21 418.608,779.85 418.181,780.721 C418.034,781.02 417.961,781.369 417.766,781.628 C407.432,795.328 412.088,809.973 414.914,824.578 C418.891,845.124 422.622,865.718 426.502,886.283 C427.08,889.345 426.473,892.206 425.629,895.109 C419.551,916.009 413.512,936.92 407.437,957.82 C407.267,958.407 406.833,958.916 406.138,960.136" fill="#FF7164"/>
    <path d="M154.591,96.078 C104.5,124.877 69.748,167.226 45.879,219.181 C44.704,221.739 43.634,224.346 42.516,226.93 C35.751,229.232 28.96,231.38 21.83,232.348 C19.535,232.659 18.111,233.44 19.649,230.034 C47.354,168.696 89.944,122.083 152.629,95.285 C152.926,95.157 153.277,95.156 153.603,95.095 C154.672,94.679 154.832,95.176 154.591,96.078" fill="#FEFEFE"/>
    <path d="M637.406,150.11 C624.208,155.557 611.014,161.077 596.648,162.672 C581.133,164.394 566.065,163.355 552.455,154.574 C550.4,153.249 548.27,151.969 546.622,149.151 C577.613,153.213 598.026,140.808 607.601,111.306 C619.103,123.037 629.186,135.858 637.406,150.11" fill="#FEFEFE"/>
    <path d="M124.617,522.133 C116.088,522.355 108.384,521.434 100.974,518.701 C91.367,515.158 87.072,507.517 85.073,498.01 C81.054,478.897 90.164,463.3 108.589,457.691 C110.975,456.964 111.755,457.122 112.013,459.729 C114.096,480.778 119.183,501.24 124.617,522.133" fill="#FEF8EA"/>
    <path d="M655.54,485.064 C656.332,476.547 657.132,468.332 657.854,460.11 C658.958,447.539 660.033,434.957 659.116,422.327 C658.886,419.156 660.104,418.694 662.86,419.204 C685.186,423.341 697.391,447.534 687.478,468.082 C684.814,473.604 680.346,477.153 674.927,479.649 C668.887,482.431 662.483,483.911 655.54,485.064" fill="#FEF8EA"/>
    <path d="M418.921,761.109 C435.487,748.705 451.193,736.946 466.899,725.186 C467.298,724.888 467.667,724.52 468.11,724.313 C470.786,723.068 474.02,720.946 476.369,722.48 C478.09,723.604 475.961,727.044 475.381,729.359 C471.223,745.946 466.898,762.49 462.594,779.04 C462.227,780.454 462.548,782.756 459.672,781.317 C446.361,774.655 433.005,768.082 418.921,761.109" fill="#FEFEFE"/>
    <path d="M395.23,759.967 C388.799,763.463 382.892,766.705 376.956,769.894 C369.646,773.821 362.278,777.642 355.008,781.641 C352.661,782.932 351.42,783.15 350.679,779.965 C347.218,765.09 343.58,750.256 339.954,735.421 C339.391,733.118 339.479,732.103 342.437,732.533 C347.69,733.298 353.014,733.594 358.314,734.015 C359.651,734.121 360.872,734.188 362.039,735.069 C372.891,743.259 383.784,751.393 395.23,759.967" fill="#FEFEFE"/>
    <path d="M528.108,968.969 C543.891,981.892 554.379,997.814 558.943,1017.45 C559.279,1018.9 559.513,1020.39 559.571,1021.87 C559.816,1028.16 558.069,1030.1 551.838,1029.98 C540.468,1029.75 530.902,1025.41 523.158,1017.03 C522.018,1015.79 521.749,1014.63 521.981,1013 C524.064,998.4 526.059,983.785 528.108,968.969" fill="#FEF8EA"/>
    <path d="M436.726,853.87 C433.627,837.026 430.505,820.187 427.441,803.336 C426.287,796.991 431.081,792.62 433.067,787.326 C433.541,786.06 435.168,787.135 436.156,787.617 C441.383,790.171 446.575,792.799 451.805,795.347 C453.311,796.081 454.201,796.91 453.65,798.793 C448.243,817.245 442.881,835.711 437.506,854.173 C437.246,854.072 436.986,853.971 436.726,853.87" fill="#FEFEFE"/>
    <path d="M375.003,852.205 C369.975,834.668 365.152,817.59 360.121,800.574 C359.386,798.091 359.914,797.04 362.102,795.968 C366.719,793.707 371.29,791.324 375.714,788.71 C377.992,787.364 378.672,787.712 380.026,790.06 C384.224,797.338 383.927,804.756 382.423,812.637 C380.18,824.382 378.497,836.234 376.597,848.045 C376.387,849.353 376.358,850.698 375.003,852.205" fill="#FEFEFE"/>
    <path d="M147.7,541.103 C156.212,547.161 165.78,550.18 176.111,551.139 C178.338,551.346 180.663,551.559 182.629,552.903 C173.851,557.319 166.142,563.216 158.819,570.425 C154.551,560.598 150.46,551.112 147.7,541.103" fill="#FEF8E9"/>
    <path d="M431.09,731.873 C424.172,737.061 417.223,742.209 410.358,747.467 C408.734,748.71 407.585,749.251 405.668,747.728 C400.091,743.297 394.311,739.123 387.805,734.244 C402.748,733.112 416.818,732.046 430.888,730.981 C430.955,731.278 431.022,731.576 431.09,731.873" fill="#FEF4E1"/>
    <path d="M154.591,96.078 C154.262,95.75 153.932,95.423 153.603,95.095 C154.971,93.644 156.653,92.958 158.644,93.019 C157.958,94.92 156.245,95.46 154.591,96.078" fill="#E1D7CF"/>
    <path d="M532.529,921.977 C533.068,922.947 532.161,924.433 533.632,925.071 C533.071,926 532.392,927.59 531.791,925.23 C531.547,924.271 532.255,923.069 532.529,921.977" fill="#B8A48D"/>
    <path d="M504.634,419.582 C504.788,424.483 503.95,429.194 501.884,433.629 C497.54,442.952 485.628,446.098 477.499,440.255 C465.754,431.812 463.573,402.792 478.52,393.653 C486.139,388.995 492.794,389.803 498.069,397.03 C502.951,403.72 504.498,411.47 504.634,419.582" fill="#6E4100"/>
    <path d="M300.65,433.963 C300.827,438.524 300.029,442.927 298.256,447.09 C295.809,452.835 291.644,456.492 285.205,457.209 C278.493,457.957 272.923,455.903 269.361,450.084 C262.537,438.935 262.04,427.284 267.538,415.437 C268.968,412.355 271.475,410.111 274.23,408.196 C282.017,402.784 289.548,404.217 294.717,412.189 C299.001,418.796 300.536,426.201 300.65,433.963" fill="#6E4100"/>
    <path d="M443.521,638.209 C443.136,642.266 441.497,644.789 437.97,645.628 C434.151,646.537 431.305,644.805 429.9,641.413 C427.809,636.362 424.872,632.083 420.502,628.801 C403.456,615.996 382.116,622.426 374.84,642.564 C374.446,643.656 374.174,644.793 373.771,645.881 C372.358,649.697 369.558,651.416 365.598,650.672 C361.803,649.96 359.713,646.414 360.328,642.336 C363.383,622.065 384.974,605.767 405.409,608.434 C422.016,610.601 434.776,618.41 442,634.033 C442.689,635.522 443.132,637.125 443.521,638.209" fill="#6E4100"/>
    <path d="M272.242,286.605 C265.714,286.451 260.724,284.908 256.28,281.711 C253.245,279.527 252.498,276.574 254.278,273.437 C256.157,270.125 259.289,269.902 262.516,271.396 C274.42,276.908 279.629,274.593 283.853,261.776 C285.084,258.04 287.582,256.214 291.427,257.14 C295.153,258.036 296.102,260.888 295.666,264.451 C294.207,276.385 283.044,286.507 272.242,286.605" fill="#6E4100"/>
    <path d="M395.543,454.626 C395.31,458.41 394.031,460.554 391.686,461.749 C389.162,463.035 386.372,462.989 384.196,461.045 C379.405,456.766 377.113,451.149 376.493,444.864 C376.218,442.076 377.821,440.188 380.256,438.965 C382.744,437.715 385.602,437.738 387.258,439.616 C391.309,444.209 392.733,450.318 395.543,454.626" fill="#6E4300"/>
    <path d="M147.557,198.006 C147.192,197.638 146.828,197.269 146.463,196.9 C147.393,195.721 148.6,195.013 150.502,194.667 C150.208,196.602 148.933,197.343 147.557,198.006" fill="#EAE0DB"/>
  </g>
</svg>
